<?xml version="1.0" encoding="UTF-8"?>
<svg version="1.1" xmlns="http://www.w3.org/2000/svg" width="500" height="500">
<path d="M0 0 C165 0 330 0 500 0 C500 165 500 330 500 500 C335 500 170 500 0 500 C0 335 0 170 0 0 Z " fill="#FDFEFE" transform="translate(0,0)"/>
<path d="M0 0 C1.23556641 0.01740234 1.23556641 0.01740234 2.49609375 0.03515625 C3.32238281 0.04417969 4.14867187 0.05320313 5 0.0625 C5.63808594 0.07410156 6.27617187 0.08570313 6.93359375 0.09765625 C6.93359375 0.42765625 6.93359375 0.75765625 6.93359375 1.09765625 C7.7328125 1.20722656 8.53203125 1.31679687 9.35546875 1.4296875 C29.01378265 4.26768352 44.97120156 10.24437084 57.93359375 26.09765625 C59.15625 28.83984375 59.15625 28.83984375 59.93359375 31.09765625 C60.59359375 31.09765625 61.25359375 31.09765625 61.93359375 31.09765625 C62.34351563 31.88011719 62.7534375 32.66257813 63.17578125 33.46875 C63.71460938 34.48066406 64.2534375 35.49257812 64.80859375 36.53515625 C65.34226562 37.54449219 65.8759375 38.55382812 66.42578125 39.59375 C67.69013489 42.19906067 67.69013489 42.19906067 69.93359375 43.09765625 C69.60359375 44.74765625 69.27359375 46.39765625 68.93359375 48.09765625 C69.59359375 48.09765625 70.25359375 48.09765625 70.93359375 48.09765625 C72.23476689 57.17101536 73.12829228 66.10973393 73.12109375 75.28515625 C73.12173828 76.0738208 73.12238281 76.86248535 73.12304688 77.67504883 C73.01656784 88.96545606 73.01656784 88.96545606 70.55859375 91.53515625 C70.02234375 92.05078125 69.48609375 92.56640625 68.93359375 93.09765625 C68.18883766 94.81383333 67.4474483 96.5320259 66.75390625 98.26953125 C65.93359375 100.09765625 65.93359375 100.09765625 63.87109375 103.16015625 C61.79418802 105.99725739 61.79418802 105.99725739 60.99609375 109.28515625 C59.65112384 112.84537072 58.23901447 113.3662454 54.93359375 115.09765625 C53.56375177 116.39345272 52.21848885 117.71758374 50.93359375 119.09765625 C51.26359375 119.75765625 51.59359375 120.41765625 51.93359375 121.09765625 C50.94359375 121.59265625 50.94359375 121.59265625 49.93359375 122.09765625 C50.26359375 122.75765625 50.59359375 123.41765625 50.93359375 124.09765625 C45.43191025 126.01684817 45.43191025 126.01684817 42.62109375 126.47265625 C39.31552794 127.24139249 36.63337326 128.60436354 33.62109375 130.16015625 C32.55246094 130.70800781 31.48382813 131.25585938 30.3828125 131.8203125 C29.57457031 132.24183594 28.76632812 132.66335938 27.93359375 133.09765625 C27.93359375 133.42765625 27.93359375 133.75765625 27.93359375 134.09765625 C17.73676851 135.90183386 7.87560181 136.27471619 -2.47094727 136.11132812 C-3.42670654 136.09779297 -4.38246582 136.08425781 -5.3671875 136.0703125 C-6.22481689 136.05234619 -7.08244629 136.03437988 -7.96606445 136.01586914 C-10.12546426 135.95548843 -10.12546426 135.95548843 -12.06640625 137.09765625 C-13.05640625 136.10765625 -13.05640625 136.10765625 -14.06640625 135.09765625 C-16.61557159 132.85439075 -19.2226917 131.5432091 -22.31640625 130.22265625 C-29.88702845 126.89896846 -35.55330787 122.88307055 -41.44140625 117.09765625 C-42.22801636 116.33195312 -42.22801636 116.33195312 -43.03051758 115.55078125 C-45.93928973 112.60547746 -47.85338213 110.07286783 -49.06640625 106.09765625 C-49.72640625 106.09765625 -50.38640625 106.09765625 -51.06640625 106.09765625 C-53.37640625 101.47765625 -55.68640625 96.85765625 -58.06640625 92.09765625 C-59.55140625 93.08765625 -59.55140625 93.08765625 -61.06640625 94.09765625 C-61.06640625 80.89765625 -61.06640625 67.69765625 -61.06640625 54.09765625 C-60.40640625 54.09765625 -59.74640625 54.09765625 -59.06640625 54.09765625 C-58.94265625 52.67453125 -58.94265625 52.67453125 -58.81640625 51.22265625 C-57.32304897 41.30676392 -52.1537875 33.8376664 -46.06640625 26.09765625 C-45.07833984 24.79634766 -45.07833984 24.79634766 -44.0703125 23.46875 C-42.1743598 21.22539076 -40.39312076 19.65753585 -38.00390625 17.97265625 C-36.06218843 16.59370118 -34.28412655 15.3273392 -32.64453125 13.59765625 C-25.79463589 7.08686462 -15.11170662 4.66131134 -6.2421875 2.078125 C-3.61103909 1.26580243 -2.54201848 0.1201332 0 0 Z " fill="#FEFEFE" transform="translate(244.06640625,180.90234375)"/>
<path d="M0 0 C2.73265577 2.32726178 3.54403498 4.12933449 4.25 7.625 C4.50523437 8.81996094 4.50523437 8.81996094 4.765625 10.0390625 C4.88164062 11.00972656 4.88164062 11.00972656 5 12 C4.67 12.33 4.34 12.66 4 13 C10.51511389 36.27273856 21.09225666 55.6926645 38 73 C38.73863281 73.80050781 39.47726563 74.60101563 40.23828125 75.42578125 C46.11889277 81.65041392 52.80523365 86.4301013 60 91 C61.08152344 91.69222656 62.16304688 92.38445312 63.27734375 93.09765625 C84.14346631 105.73419955 108.73078382 111.64166258 133 112 C133 114.31 133 116.62 133 119 C99.75768648 119.56286786 66.05655946 105.73474439 42.0144043 82.90161133 C40.67322018 81.6042191 39.33646733 80.30225055 38 79 C37.3090625 78.38253906 36.618125 77.76507813 35.90625 77.12890625 C17.55409475 60.24341915 6.88178809 34.74958475 1 11 C1.40915117 18.61417811 3.0483804 25.35999183 5.5 32.5625 C5.85384766 33.60881592 6.20769531 34.65513184 6.57226562 35.7331543 C12.95304161 53.9773126 22.73904389 68.9616775 36 83 C36.68578125 83.75023437 37.3715625 84.50046875 38.078125 85.2734375 C55.91102202 104.09705102 83.18730502 118.13192278 109 121 C109.04254356 122.99954746 109.04080783 125.00041636 109 127 C108.67 127.33 108.34 127.66 108 128 C93.48703395 126.75377791 80.62575124 120.86894954 68 114 C66.40865234 113.14921875 66.40865234 113.14921875 64.78515625 112.28125 C33.81641797 95.02665732 12.39562889 66.33444739 1.9609375 32.69921875 C-4.1184379 9.29609475 -4.1184379 9.29609475 -1 1.5 C-0.67 1.005 -0.34 0.51 0 0 Z " fill="#0E9CB6" transform="translate(184,269)"/>
<path d="M0 0 C1.65 0.99 3.3 1.98 5 3 C2.20876121 20.15790904 -21.04491025 37.32509051 -33.9375 46.625 C-57.08019973 62.36783963 -82.55675451 70.44599005 -110.625 70.3125 C-111.84268066 70.30831055 -113.06036133 70.30412109 -114.31494141 70.29980469 C-129.4823962 70.11168742 -143.58565411 67.63234281 -158 63 C-131.43174703 73.99375985 -101.15002296 77.45087627 -73 70 C-72.28312012 69.81195801 -71.56624023 69.62391602 -70.82763672 69.43017578 C-54.20249094 64.87032236 -38.38250327 56.88203555 -25 46 C-24.47712402 45.58105469 -23.95424805 45.16210938 -23.41552734 44.73046875 C-16.29419756 39.00203888 -9.80588298 33.10387494 -4 26 C-2.02 26.99 -2.02 26.99 0 28 C0 32.93872784 -1.71235622 34.65595057 -5 38 C-7.56597918 40.46309794 -10.25484289 42.73928238 -13 45 C-13.89203125 45.7528125 -14.7840625 46.505625 -15.703125 47.28125 C-38.98625442 66.14655486 -68.32125013 77.18873797 -98.30053711 77.18530273 C-100.40044283 77.1874619 -102.49979825 77.20557188 -104.59960938 77.22460938 C-117.6220859 77.28181418 -130.18945183 76.1799587 -142.5625 71.8125 C-143.44510498 71.51077881 -144.32770996 71.20905762 -145.23706055 70.89819336 C-152.83782497 68.22268558 -159.95075476 64.89781796 -167 61 C-163.31282562 58.54188375 -161.35654296 58.68881836 -157 59 C-156.01 59.66 -155.02 60.32 -154 61 C-127.09084325 72.06518179 -93.2341459 69.06759267 -66.6484375 58.30859375 C-38.66587815 46.30129692 -18.72102716 28.35416618 -2 3 C-1.34 2.01 -0.68 1.02 0 0 Z " fill="#0C9CB5" transform="translate(397,257)"/>
<path d="M0 0 C0 0.66 0 1.32 0 2 C-1.4540625 1.9071875 -1.4540625 1.9071875 -2.9375 1.8125 C-7.66007463 1.82198308 -11.63288833 3.32236556 -16 5 C-16.83088135 5.31469238 -17.6617627 5.62938477 -18.51782227 5.95361328 C-35.65981724 12.62386748 -49.60380995 22.37841958 -63 35 C-63.67546875 35.61101562 -64.3509375 36.22203125 -65.046875 36.8515625 C-71.37848609 42.80327692 -76.20553627 49.79913522 -81 57 C-81.63035156 57.94617188 -82.26070312 58.89234375 -82.91015625 59.8671875 C-95.94488461 80.82964359 -101.63391311 105.50545883 -102 130 C-104.31 130 -106.62 130 -109 130 C-110.43887877 102.34155259 -99.54929817 72.86988121 -83 51 C-82.31550781 50.09507812 -81.63101563 49.19015625 -80.92578125 48.2578125 C-66.53647899 30.0193073 -26.10921569 -8.7030719 0 0 Z " fill="#0F9DB6" transform="translate(221,187)"/>
<path d="M0 0 C15.25178113 13.22181544 28.68305074 30.95894039 35.75 50.0625 C35.42 51.0525 35.09 52.0425 34.75 53.0625 C34.46914551 52.49442627 34.18829102 51.92635254 33.89892578 51.34106445 C28.09045397 39.6852406 22.25824533 28.96325684 13.75 19.0625 C13.03457031 18.19753906 12.31914062 17.33257812 11.58203125 16.44140625 C-8.29537255 -6.76700146 -37.20556177 -21.34052219 -67.25 -25.9375 C-70.86171802 -26.17774359 -74.4519365 -26.17285823 -78.0703125 -26.1328125 C-79.05498505 -26.1299826 -80.03965759 -26.12715271 -81.0541687 -26.12423706 C-84.16124261 -26.11315195 -87.26801504 -26.08806991 -90.375 -26.0625 C-92.49739163 -26.05245509 -94.61978784 -26.0433319 -96.7421875 -26.03515625 C-101.91157231 -26.01325099 -107.08073526 -25.97880328 -112.25 -25.9375 C-112.25 -28.2475 -112.25 -30.5575 -112.25 -32.9375 C-70.69601535 -37.24526476 -32.1568865 -27.18644061 0 0 Z " fill="#149FB8" transform="translate(272.25,157.9375)"/>
<path d="M0 0 C1.08333333 0.8125 2.16666667 1.625 3.25 2.4375 C4.35214844 3.25927734 4.35214844 3.25927734 5.4765625 4.09765625 C7.23383278 5.42240954 8.97773691 6.76500164 10.7109375 8.12109375 C41.26420038 31.75277295 75.57617621 39.19564353 113.75 35.5 C128.56345406 33.06845515 143.43056331 27.49229098 156.48828125 20.15234375 C159 19 159 19 162 20 C163.1875 22.5625 163.1875 22.5625 164 25 C161.31321744 26.27236834 158.62560532 27.54293165 155.9375 28.8125 C154.80924805 29.34713867 154.80924805 29.34713867 153.65820312 29.89257812 C151.44307458 30.93781194 149.22237997 31.97029049 147 33 C145.87464844 33.52722656 144.74929688 34.05445313 143.58984375 34.59765625 C139.0143678 36.38502933 134.40400588 37.5190015 129.625 38.625 C128.73039063 38.8415625 127.83578125 39.058125 126.9140625 39.28125 C92.90552807 47.28907351 56.251115 41.00774549 26.49609375 22.92578125 C20.00364818 18.70527704 13.93234693 13.97007661 8 9 C7.20851562 8.34386719 6.41703125 7.68773437 5.6015625 7.01171875 C1.42428131 3.47202259 1.42428131 3.47202259 0 2 C0 1.34 0 0.68 0 0 Z " fill="#129EB7" transform="translate(213,311)"/>
<path d="M0 0 C29.93329151 -2.23105278 63.16221 12.10446519 85.59765625 31.37207031 C107.51513048 50.63249575 124.90947922 76.06056898 131 105 C131.09765625 107.89453125 131.09765625 107.89453125 131 110 C129.23276992 107.34915488 128.43424851 105.58100655 127.51953125 102.60546875 C127.24633057 101.73913818 126.97312988 100.87280762 126.69165039 99.98022461 C126.40153076 99.05862549 126.11141113 98.13702637 125.8125 97.1875 C114.60274279 62.72417781 91.14262308 37.07813977 59.3046875 20.60546875 C40.4835678 11.54025055 20.72724238 7.98057101 0 7 C0 4.69 0 2.38 0 0 Z " fill="#0E9CB6" transform="translate(183,112)"/>
<path d="M0 0 C1.98 0.66 3.96 1.32 6 2 C4.11075276 8.32911777 1.68133296 14.0015233 -1.5625 19.75 C-2.00158691 20.53076904 -2.44067383 21.31153809 -2.89306641 22.1159668 C-7.008785 29.2733233 -11.63574864 35.72197073 -17 42 C-17.45600586 42.53963379 -17.91201172 43.07926758 -18.38183594 43.63525391 C-40.3817119 69.38733932 -72.52675203 86.28120609 -106.27490234 89.79345703 C-111.65847611 90.20149353 -117.04020942 90.28534675 -122.4375 90.3125 C-123.52240723 90.31813965 -124.60731445 90.3237793 -125.72509766 90.32958984 C-134.15641703 90.25081742 -134.15641703 90.25081742 -138 88 C-136.97567871 87.97812622 -136.97567871 87.97812622 -135.93066406 87.95581055 C-94.39728267 86.97139288 -58.51241847 77.18282007 -28.67724609 46.80224609 C-16.99988008 34.25460186 -8.05242604 19.09705745 -1.875 3.16015625 C-1 1 -1 1 0 0 Z " fill="#0C9CB5" transform="translate(396,232)"/>
<path d="M0 0 C0 4.09382068 -2.13518408 6.24189222 -4.4375 9.4375 C-13.74486721 22.92133551 -19.99109 37.90335748 -23 54 C-23.2616394 55.27967651 -23.2616394 55.27967651 -23.52856445 56.58520508 C-25.11322015 64.95621393 -25.36031949 73.18599357 -25.3125 81.6875 C-25.31001251 82.3940976 -25.30752502 83.10069519 -25.30496216 83.82870483 C-25.14827721 112.61193265 -16.00645811 144.99354189 5 166 C4.875 168 4.875 168 4 170 C1.9453125 171.125 1.9453125 171.125 0 172 C-12.9158973 156.59659655 -21.41408667 138.20968398 -27 119 C-27.35964844 117.78441406 -27.71929687 116.56882812 -28.08984375 115.31640625 C-32.56976405 96.46770933 -31.87008774 72.71449039 -27 54 C-26.83371094 53.32050293 -26.66742188 52.64100586 -26.49609375 51.94091797 C-21.69329575 32.52071533 -12.59480815 15.50424712 0 0 Z " fill="#0F9DB6" transform="translate(187,218)"/>
<path d="M0 0 C6.6205989 0.52355086 12.32658731 1.81124131 18.5625 4.0625 C19.4280249 4.37123047 20.2935498 4.67996094 21.18530273 4.99804688 C39.75857929 11.80716801 55.37387915 21.76165992 70 35 C70.82628906 35.74121094 71.65257812 36.48242188 72.50390625 37.24609375 C93.86384041 57.45969871 110.1681306 90.18431969 111.1171875 119.63671875 C111.12394274 122.76101902 111.09066319 125.87715673 111 129 C110.67 129 110.34 129 110 129 C109.91024902 128.33693848 109.82049805 127.67387695 109.72802734 126.99072266 C104.58265845 89.89664978 90.33204954 56.4612756 59.81542969 32.8425293 C46.34114124 22.76133714 31.94263538 16.15401206 16 11 C14.29141281 10.39655162 12.58302237 9.79254521 10.875 9.1875 C7.2659758 7.99152707 3.77792127 7.40190652 0 7 C0 4.69 0 2.38 0 0 Z " fill="#0C9CB5" transform="translate(207,103)"/>
<path d="M0 0 C1.49188843 -0.0009668 1.49188843 -0.0009668 3.01391602 -0.00195312 C10.72536123 0.05309735 18.10434995 0.71555406 25.6875 2.1875 C25.6875 2.5175 25.6875 2.8475 25.6875 3.1875 C24.59622803 3.16131592 23.50495605 3.13513184 22.38061523 3.1081543 C-20.00639693 2.18214323 -55.1105726 8.77437281 -87.3125 38.1875 C-88.50939453 39.26064453 -88.50939453 39.26064453 -89.73046875 40.35546875 C-104.40529098 54.1991506 -113.46767939 71.90946619 -121.3125 90.1875 C-122.9625 89.8575 -124.6125 89.5275 -126.3125 89.1875 C-127.59445637 85.30383233 -126.74303615 83.34853515 -124.91210938 79.70556641 C-124.54923828 79.01897949 -124.18636719 78.33239258 -123.8125 77.625 C-123.26045898 76.55644775 -123.26045898 76.55644775 -122.69726562 75.46630859 C-106.23751316 44.05537822 -79.49668635 19.07835852 -45.8125 7.4375 C-30.45509789 2.64236179 -16.13478195 -0.0109602 0 0 Z " fill="#0D9CB5" transform="translate(225.3125,177.8125)"/>
<path d="M0 0 C2.14603631 0.00313748 4.29065886 -0.02028423 6.43652344 -0.0456543 C16.00513591 -0.08873325 24.73443109 1.08261338 34.04589844 3.31567383 C35.03879883 3.54875244 36.03169922 3.78183105 37.0546875 4.02197266 C53.86653708 8.11289999 71.68706949 16.2306881 85.04589844 27.31567383 C80.93319829 27.31567383 78.29359344 25.29480385 74.85839844 23.25317383 C62.15212181 15.93437007 49.40702226 10.43637118 35.04589844 7.31567383 C34.26496826 7.13834717 33.48403809 6.96102051 32.67944336 6.77832031 C24.77681133 5.13702129 17.03590592 4.96914498 8.98339844 5.00317383 C7.9596814 5.00590805 7.9596814 5.00590805 6.9152832 5.00869751 C-22.30301746 5.13991486 -55.59259244 13.95416471 -76.95410156 35.31567383 C-78.95410156 35.19067383 -78.95410156 35.19067383 -80.95410156 34.31567383 C-82.07910156 32.26098633 -82.07910156 32.26098633 -82.95410156 30.31567383 C-64.91588495 16.47410353 -45.20290797 7.04647266 -22.95410156 2.31567383 C-22.32938965 2.13979736 -21.70467773 1.9639209 -21.06103516 1.78271484 C-14.11431557 -0.06881068 -7.13543767 -0.02172495 0 0 Z " fill="#109DB6" transform="translate(192.9541015625,156.684326171875)"/>
<path d="M0 0 C4.10120749 1.36706916 5.43456542 4.14762568 7.6875 7.625 C8.12739258 8.29797119 8.56728516 8.97094238 9.02050781 9.66430664 C29.0079184 40.70404712 37.03801221 76.31298145 30.1640625 113 C26.10058453 131.7084621 18.34246002 149.58537832 7 165 C6.67 164.34 6.34 163.68 6 163 C7.12196565 160.84728541 8.29506019 158.81484863 9.5625 156.75 C26.67740897 127.7261384 32.04136149 92.7726335 24.19433594 59.8984375 C19.04947908 40.02282086 10.19255052 23.40781891 -2 7 C-2.66 6.01 -3.32 5.02 -4 4 C-2.68 2.68 -1.36 1.36 0 0 Z " fill="#0F9DB6" transform="translate(311,110)"/>
<path d="M0 0 C-2.72874187 1.36437094 -5.42271982 1.34946975 -8.42480469 1.59545898 C-16.157369 2.23172793 -23.69657864 3.13564889 -31.25 4.9375 C-32.24785522 5.17400269 -32.24785522 5.17400269 -33.26586914 5.4152832 C-54.15526161 10.66724766 -73.64430316 22.0349569 -89 37 C-89.845625 37.804375 -90.69125 38.60875 -91.5625 39.4375 C-92.7690625 40.7059375 -92.7690625 40.7059375 -94 42 C-94.64195312 42.65871094 -95.28390625 43.31742188 -95.9453125 43.99609375 C-113.66648973 62.79783057 -123.29326196 86.08521686 -129 111 C-130.66611905 111.042721 -132.33382885 111.04063832 -134 111 C-134.33 110.67 -134.66 110.34 -135 110 C-134.93951221 103.31071285 -133.44097878 97.26510792 -131.0625 91.0625 C-130.60496338 89.85194946 -130.60496338 89.85194946 -130.13818359 88.61694336 C-122.86744631 70.00796122 -112.69993813 54.51712742 -99 40 C-98.32710937 39.26265625 -97.65421875 38.5253125 -96.9609375 37.765625 C-72.68643856 12.12739017 -39.58683121 1.25191489 -5.2421875 -1.00927734 C-3 -1 -3 -1 0 0 Z " fill="#0B9BB5" transform="translate(238,182)"/>
<path d="M0 0 C3 1 3 1 4.01147461 2.57543945 C4.45245483 3.58417114 4.45245483 3.58417114 4.90234375 4.61328125 C5.23331055 5.36005127 5.56427734 6.10682129 5.90527344 6.8762207 C6.2459082 7.68019287 6.58654297 8.48416504 6.9375 9.3125 C7.29231445 10.1377417 7.64712891 10.9629834 8.01269531 11.81323242 C22.73321079 46.47144698 23.05208801 84.04438345 9 119 C1.81005268 135.84738658 -8.48913841 152.57655577 -23 164 C-21.53678604 160.61868691 -19.64444103 158.48028589 -17.0625 155.875 C3.69123554 133.14949249 13.44377064 101.68186803 13.25 71.4375 C13.25773437 70.22642578 13.26546875 69.01535156 13.2734375 67.76757812 C13.24957958 56.63189407 11.84727859 45.90476905 8.8125 35.1875 C8.49756592 34.06154419 8.49756592 34.06154419 8.17626953 32.9128418 C5.8462982 24.94193125 2.48945355 17.51638218 -1 10 C-2.01618028 7.67318453 -3.00958965 5.33796867 -4 3 C-2.1875 1.4375 -2.1875 1.4375 0 0 Z " fill="#119EB7" transform="translate(334,123)"/>
<path d="M0 0 C5.71555733 0.52209418 10.02889039 2.76951457 15 5.4375 C15.83869629 5.88561035 16.67739258 6.3337207 17.54150391 6.79541016 C48.61819553 23.74148327 72.35297034 51.83656326 83.3125 85.625 C85.31183378 92.65805466 86.7065669 99.80785291 88 107 C88.18949219 107.88945312 88.37898438 108.77890625 88.57421875 109.6953125 C89.22817972 114.7710096 89.14359952 119.82573095 89.125 124.9375 C89.12886719 125.99646484 89.13273437 127.05542969 89.13671875 128.14648438 C89.12999171 133.53820621 88.9517636 138.68976338 88 144 C87.67 144 87.34 144 87 144 C86.970271 142.94425781 86.970271 142.94425781 86.93994141 141.8671875 C85.70956301 100.21106155 76.6315882 64.93047834 46 35 C33.32845143 23.13984487 18.77630725 14.97645748 3 8 C1.66152574 7.34371585 0.32536688 6.6823671 -1 6 C-0.67 4.02 -0.34 2.04 0 0 Z " fill="#0E9DB6" transform="translate(233,98)"/>
<path d="M0 0 C1.36500767 4.09502301 0.16347465 7.2651998 -0.875 11.3125 C-1.24923152 12.80813563 -1.62166132 14.30422336 -1.9921875 15.80078125 C-2.16089355 16.46247314 -2.32959961 17.12416504 -2.50341797 17.8059082 C-8.35933396 43.6796137 -3.53623046 71.12955942 7 95 C7.27714844 95.63276855 7.55429688 96.26553711 7.83984375 96.91748047 C17.83079547 119.29553919 34.93037332 137.48331122 55.1171875 151.0546875 C57.46940566 152.64195667 59.7504866 154.27211289 62 156 C61.01 158.97 61.01 158.97 60 162 C55.67944553 160.53851854 52.3566308 158.23404899 48.8125 155.4375 C48.24225098 154.99132324 47.67200195 154.54514648 47.08447266 154.08544922 C16.72633723 130.09971837 -2.84371877 97.27305358 -7.68359375 58.59765625 C-9.43909133 38.63699861 -6.82281472 18.82341769 0 0 Z " fill="#0B9BB5" transform="translate(180,241)"/>
<path d="M0 0 C2.31 0 4.62 0 7 0 C6.42058578 6.33688466 4.97166474 11.9798291 2.9375 18 C2.62804443 18.91773193 2.31858887 19.83546387 1.99975586 20.78100586 C-4.52278444 39.54615367 -14.82795547 55.22779599 -28 70 C-28.63292969 70.71800781 -29.26585937 71.43601562 -29.91796875 72.17578125 C-49.80720548 93.38218597 -82.56805356 110.1009542 -111.87109375 111.09765625 C-113.14146484 111.08025391 -113.14146484 111.08025391 -114.4375 111.0625 C-115.30246094 111.05347656 -116.16742188 111.04445313 -117.05859375 111.03515625 C-117.69925781 111.02355469 -118.33992188 111.01195312 -119 111 C-115.35312681 108.79881823 -111.57350841 108.35911349 -107.4375 107.75 C-73.85402341 102.18237536 -43.79019203 84.25394242 -23.5390625 56.70703125 C-11.29034479 39.42944525 -4.44797976 20.58875479 0 0 Z " fill="#0C9BB5" transform="translate(390,207)"/>
<path d="M0 0 C1.03302246 0.02320313 1.03302246 0.02320313 2.08691406 0.046875 C35.60073793 0.85160914 68.01104348 17.78108367 91.33056641 41.22216797 C95.9561734 46.14812148 100.00393569 51.5604594 104 57 C103.67 57.66 103.34 58.32 103 59 C102.27296875 58.11699219 101.5459375 57.23398438 100.796875 56.32421875 C83.37196457 35.41081137 63.20373658 20.98862437 37.375 12.125 C36.55306152 11.83858643 35.73112305 11.55217285 34.88427734 11.25708008 C22.61253788 7.24966172 10.07384563 6.62107008 -2.75 6.6875 C-3.79550018 6.68923721 -3.79550018 6.68923721 -4.86212158 6.69100952 C-18.67242237 6.73626781 -31.97031221 7.76333995 -45.0546875 12.546875 C-47.3586702 13.08354567 -48.77830933 12.73724265 -51 12 C-51.33 10.35 -51.66 8.7 -52 7 C-34.45998167 1.97032953 -18.28533305 -0.6133445 0 0 Z " fill="#119EB7" transform="translate(192,136)"/>
<path d="M0 0 C4.70804402 1.41241321 7.43202851 4.11478958 10.625 7.6875 C11.14497559 8.26419434 11.66495117 8.84088867 12.20068359 9.43505859 C40.65623485 41.54560946 49.97082824 77.78684103 48 120 C47.393125 126.22724657 45.93837129 132.06566357 44 138 C43.73203613 138.84014648 43.46407227 139.68029297 43.18798828 140.54589844 C40.34226001 149.34932224 37.28454144 157.78796224 33 166 C31.73592834 162.20778503 32.47185839 161.42875951 34.125 157.875 C44.48452388 133.95286825 47.84486834 105.56290119 42 80 C41.75507813 78.78183594 41.51015625 77.56367188 41.2578125 76.30859375 C35.52709373 49.4945308 18.9536111 21.75096 -3 5 C-1.125 1.125 -1.125 1.125 0 0 Z " fill="#0E9CB6" transform="translate(286,102)"/>
<path d="M0 0 C23.87711894 8.16386787 43.51600513 36.79172961 54.3125 58.1875 C69.11347948 88.4255223 71.9653139 125.31203254 61.55078125 157.41015625 C61.36902344 157.93480469 61.18726563 158.45945313 61 159 C59.57321266 155.14767419 60.43523493 152.2310617 61.375 148.3125 C69.11172108 115.81104087 62.17780351 80.35700896 45 52 C32.54915509 32.57843559 16.64805165 17.93022626 -3 6 C-2.01 4.02 -1.02 2.04 0 0 Z " fill="#109DB6" transform="translate(260,97)"/>
<path d="M0 0 C0.77596527 -0.00078552 1.55193054 -0.00157104 2.35140991 -0.00238037 C16.91451905 0.01529034 30.34983083 1.55245282 44.1875 6.375 C40.45333796 7.72795726 37.84198199 6.99268322 34.0625 6 C24.673174 3.54362376 15.41083565 3.21122742 5.75 3.25 C4.79029297 3.24613281 3.83058594 3.24226562 2.84179688 3.23828125 C-7.65545347 3.25241896 -17.43438432 4.1719017 -27.5625 7 C-28.51769531 7.26506348 -29.47289062 7.53012695 -30.45703125 7.80322266 C-38.74224251 10.19372355 -46.20788747 13.30661813 -53.8125 17.375 C-54.42061523 17.69758789 -55.02873047 18.02017578 -55.65527344 18.35253906 C-67.36885489 24.61651911 -77.08758141 32.35053618 -86.8125 41.375 C-87.40675781 41.90351563 -88.00101563 42.43203125 -88.61328125 42.9765625 C-96.83505111 50.62928385 -103.42243579 60.57947348 -108.8125 70.375 C-110.7925 69.385 -112.7725 68.395 -114.8125 67.375 C-111.22739595 57.07017213 -102.16602173 48.18145604 -94.8125 40.375 C-94.2246875 39.72273438 -93.636875 39.07046875 -93.03125 38.3984375 C-82.0195892 26.66232533 -68.22951854 18.24235444 -53.8125 11.375 C-52.76449219 10.87226563 -51.71648437 10.36953125 -50.63671875 9.8515625 C-43.26234409 6.55853998 -35.66249762 4.57308486 -27.79614258 2.83300781 C-26.49358618 2.53225756 -25.19801993 2.19905069 -23.9128418 1.83105469 C-16.08767739 -0.26515564 -8.0391385 -0.01717153 0 0 Z " fill="#0C9CB5" transform="translate(211.8125,172.625)"/>
<path d="M0 0 C0.33 0.66 0.66 1.32 1 2 C-3.52295569 0.54792974 -7.91772743 -1.14196161 -12.3125 -2.9375 C-37.73890381 -13.14190187 -64.14149576 -15.9011498 -91 -10 C-92.00804687 -9.80664062 -93.01609375 -9.61328125 -94.0546875 -9.4140625 C-120.00481028 -3.87899476 -148.40559533 13.26684556 -164 35 C-167.16115776 33.63016497 -167.9927092 33.0109362 -170 30 C-126.23463325 -15.92958819 -57.11093259 -33.11271949 0 0 Z " fill="#0D9CB6" transform="translate(271,182)"/>
<path d="M0 0 C8.33567452 16.67134904 0.92208624 47.54931225 -4.27587891 63.97583008 C-12.28937088 87.20758384 -25.99492407 109.22476703 -45 125 C-45.75152344 125.639375 -46.50304687 126.27875 -47.27734375 126.9375 C-55.25268126 133.55560827 -63.97031883 140.02713043 -74 143 C-71.59590099 140.35787138 -68.98489804 138.65847781 -65.9375 136.8125 C-60.26784476 133.25404533 -55.10543067 129.321844 -50 125 C-49.1646875 124.30003906 -48.329375 123.60007812 -47.46875 122.87890625 C-29.59474641 107.40465314 -17.83388421 86.54568019 -10.625 64.25 C-10.38628174 63.51885986 -10.14756348 62.78771973 -9.90161133 62.03442383 C-5.72342738 48.37863782 -5.74509465 34.81654516 -5.875 20.6875 C-5.8850544 18.77148908 -5.89417588 16.85547302 -5.90234375 14.93945312 C-5.92415197 10.29283966 -5.95854491 5.64647801 -6 1 C-4 0 -4 0 0 0 Z " fill="#139EB7" transform="translate(374,160)"/>
<path d="M0 0 C1.9375 0.1875 1.9375 0.1875 4 1 C5.12890625 3.05078125 5.12890625 3.05078125 6 5 C-19.53182114 24.19804117 -48.34399448 35.44049023 -80.625 35.5 C-81.34110443 35.50168182 -82.05720886 35.50336365 -82.79501343 35.50509644 C-109.32947587 35.44079318 -135.38672181 27.72903491 -157 12 C-157.33 11.34 -157.66 10.68 -158 10 C-154.37017196 11.36380822 -150.93551511 13.00145198 -147.484375 14.76635742 C-144.65286006 16.21352364 -141.80366467 17.62397378 -138.95263672 19.03222656 C-137.33966069 19.83165604 -135.73335316 20.64452506 -134.12890625 21.4609375 C-118.22038009 28.88334049 -100.74935199 30.4740691 -83.4375 30.5 C-82.72978455 30.50440094 -82.02206909 30.50880188 -81.29290771 30.51333618 C-67.74266441 30.54855053 -54.9343178 28.48380825 -42.125 23.875 C-41.28694824 23.5756958 -40.44889648 23.2763916 -39.58544922 22.96801758 C-25.84524354 17.88582819 -10.50233722 10.50233722 0 0 Z " fill="#0E9CB6" transform="translate(384,308)"/>
<path d="M0 0 C-1.11375 0.57105469 -2.2275 1.14210937 -3.375 1.73046875 C-14.68788472 7.68087385 -24.47170551 14.49088798 -34 23 C-34.52174805 23.45987305 -35.04349609 23.91974609 -35.58105469 24.39355469 C-58.6667475 45.03146032 -72.85716559 77.39852493 -75 108 C-75.52681626 119.99970375 -75.28406343 132.05362415 -74 144 C-75.98 144.33 -77.96 144.66 -80 145 C-88.84515953 127.30968095 -80.84484008 95.33223002 -74.99511719 77.74511719 C-62.28789636 42.69114491 -37.77045514 18.0603381 -5.74609375 0.18359375 C-3 -1 -3 -1 0 0 Z " fill="#0D9CB5" transform="translate(206,195)"/>
<path d="M0 0 C11.40804952 38.40419723 8.69702813 75.51381998 -9.65234375 111.21484375 C-20.55169801 130.73109926 -36.08285157 145.90867378 -54 159 C-54.66 158.67 -55.32 158.34 -56 158 C-55.55197021 157.64284912 -55.10394043 157.28569824 -54.64233398 156.91772461 C-52.57051356 155.26202879 -50.5040133 153.59981422 -48.4375 151.9375 C-47.73302734 151.37611328 -47.02855469 150.81472656 -46.30273438 150.23632812 C-19.42564099 128.56125282 -3.15014508 96.550769 0.75 62.4375 C0.86510258 60.62673991 0.94416095 58.81355526 1 57 C1.0306958 56.02861084 1.0306958 56.02861084 1.06201172 55.03759766 C1.52842435 37.87284198 -1.1590726 22.4119246 -6 6 C-6.33931359 4.668176 -6.67428804 3.33521557 -7 2 C-4.35261084 0.5393715 -3.10551666 0 0 0 Z " fill="#0D9CB6" transform="translate(357,140)"/>
<path d="M0 0 C3.16949528 3.11753634 6.21700486 6.30532157 9.1965332 9.60424805 C31.27609899 33.97601044 61.52885481 51.72381287 95 54 C102.00407205 54.24743812 108.99529605 54.17339104 116 54 C117.08152344 53.98195313 118.16304688 53.96390625 119.27734375 53.9453125 C131.20701713 53.36337721 143.76871373 49.98469727 155 46 C156.4606285 48.64738916 157 49.89448334 157 53 C132.31228134 60.70757619 105.10792393 63.78662395 79.8125 56.8125 C78.99716797 56.58965332 78.18183594 56.36680664 77.34179688 56.13720703 C45.94131911 47.33407698 18.61432289 29.08597714 0 2 C0 1.34 0 0.68 0 0 Z " fill="#109DB7" transform="translate(203,304)"/>
<path d="M0 0 C1.34711632 4.04134896 0.20840585 5.77710132 -1.25 9.75 C-3.95195743 17.39492809 -5.65348078 24.99366949 -7 33 C-7.185625 34.08796875 -7.37125 35.1759375 -7.5625 36.296875 C-11.66536556 71.02470137 -0.87836914 105.34863222 20.22265625 132.90234375 C24.81295048 138.64217993 29.70422612 143.91145205 35 149 C36.00243012 149.99756396 37.00280503 150.99720281 38 152 C38.99 152.99 38.99 152.99 40 154 C39.01 155.32 38.02 156.64 37 158 C32.70828387 157.53328855 30.31640455 154.81374537 27.4375 151.875 C26.9130127 151.34148926 26.38852539 150.80797852 25.84814453 150.25830078 C11.09174146 134.8635913 0.70000206 116.14467286 -6 96 C-6.30421875 95.14664063 -6.6084375 94.29328125 -6.921875 93.4140625 C-13.94624943 72.41261649 -14.37770883 48.37294533 -9 27 C-8.69835937 25.71867187 -8.39671875 24.43734375 -8.0859375 23.1171875 C-6.08641978 15.07034788 -3.42889087 7.54637047 0 0 Z " fill="#0F9DB6" transform="translate(177,240)"/>
<path d="M0 0 C3.71991643 3.0765836 7.30881034 6.27534598 10.83984375 9.56640625 C12.68703618 11.36865033 12.68703618 11.36865033 14.80078125 12.31640625 C14.47078125 12.97640625 14.14078125 13.63640625 13.80078125 14.31640625 C12.78371094 13.46369141 12.78371094 13.46369141 11.74609375 12.59375 C-16.83682386 -11.1197786 -49.74620931 -24.04460403 -87.19921875 -21.68359375 C-108.16654157 -19.63576997 -126.44277415 -12.90761509 -145.19921875 -3.68359375 C-146.76171875 -5.49609375 -146.76171875 -5.49609375 -148.19921875 -7.68359375 C-147.19921875 -10.68359375 -147.19921875 -10.68359375 -144.34765625 -12.33203125 C-143.09625166 -12.9213555 -141.83783274 -13.49592494 -140.57421875 -14.05859375 C-139.89907227 -14.36385986 -139.22392578 -14.66912598 -138.52832031 -14.98364258 C-131.5769327 -18.05978496 -124.51458009 -20.61132416 -117.19921875 -22.68359375 C-116.52536133 -22.88114258 -115.85150391 -23.07869141 -115.15722656 -23.28222656 C-76.52309611 -34.22587687 -31.5260582 -24.52974758 0 0 Z " fill="#0E9CB6" transform="translate(271.19921875,173.68359375)"/>
<path d="M0 0 C2.34727726 2.88671365 4.07581176 5.94044402 5.80273438 9.22827148 C11.06219095 19.14483794 17.59053478 27.60066516 25 36 C26.14082031 37.29550781 26.14082031 37.29550781 27.3046875 38.6171875 C49.67773035 62.34105558 83.37084644 76.0843585 115.64453125 77.203125 C124.03707413 77.35268798 132.41729127 76.90485734 140.78393555 76.26855469 C142.52036248 76.14257248 144.26026697 76.06617389 146 76 C147 77 147 77 147.0625 79.5625 C147.041875 80.366875 147.02125 81.17125 147 82 C117.55706851 89.72273613 81.74170189 80.38713536 55.89160156 65.68432617 C48.71545798 61.4284692 42.27119098 56.51017087 36 51 C35.17113281 50.30390625 34.34226563 49.6078125 33.48828125 48.890625 C19.37500069 36.74921566 6.9745102 20.38619584 0 3 C0 2.01 0 1.02 0 0 Z " fill="#0F9DB6" transform="translate(193,292)"/>
<path d="M0 0 C0.66 0.33 1.32 0.66 2 1 C1.32195312 1.70382813 0.64390625 2.40765625 -0.0546875 3.1328125 C-18.21185648 22.26967302 -31.23990112 44.83521808 -36 71 C-36.30744141 72.66675781 -36.30744141 72.66675781 -36.62109375 74.3671875 C-41.56701302 105.54353382 -35.32396308 136.48652084 -20 164 C-21.98 164.99 -23.96 165.98 -26 167 C-37.6219643 145.34892946 -43.20323866 124.79471549 -43.3125 100.1875 C-43.31813965 98.98375732 -43.3237793 97.78001465 -43.32958984 96.53979492 C-43.26477058 88.53132045 -42.46200948 80.87127688 -41 73 C-40.864729 72.27031006 -40.72945801 71.54062012 -40.59008789 70.78881836 C-34.91995632 42.51848431 -19.22297206 20.74796775 0 0 Z " fill="#0C9CB5" transform="translate(190,210)"/>
<path d="M0 0 C0.33 0 0.66 0 1 0 C1.10957031 1.30710937 1.21914062 2.61421875 1.33203125 3.9609375 C4.47951674 40.10933142 14.17027228 71.50996345 40 98 C40.93005859 99.04027344 40.93005859 99.04027344 41.87890625 100.1015625 C52.53141933 111.68348947 66.8440699 119.54290908 81 126 C81.99 126.45375 82.98 126.9075 84 127.375 C85.99075305 128.27083887 87.99347777 129.1400619 90 130 C89.01 132.97 89.01 132.97 88 136 C83.39068364 135.36943842 79.54077084 133.52026165 75.4375 131.4375 C74.73149658 131.08034912 74.02549316 130.72319824 73.2980957 130.35522461 C38.70982225 112.51116682 15.90088497 82.53419109 4 46 C-0.46143625 30.80323276 -0.13494846 15.68931597 0 0 Z " fill="#0C9CB5" transform="translate(178,266)"/>
<path d="M0 0 C0.66 0.33 1.32 0.66 2 1 C1.17757812 1.67804688 0.35515625 2.35609375 -0.4921875 3.0546875 C-29.30978629 26.98691799 -47.55894483 56.40545623 -52 94 C-53.37719515 113.09364144 -52.07238473 131.25169393 -45.671875 149.36328125 C-44.97913211 152.08189435 -45.03847566 153.405117 -46 156 C-47.65 156.33 -49.3 156.66 -51 157 C-56.78986224 141.74650507 -58.27945229 127.32795919 -58.3125 111.1875 C-58.31787781 110.12397812 -58.31787781 110.12397812 -58.32336426 109.03897095 C-58.35687108 96.70471696 -56.96280311 85.14704003 -53.375 73.3125 C-53.11775146 72.46308838 -52.86050293 71.61367676 -52.59545898 70.73852539 C-43.72588322 42.5881751 -24.63560363 16.42373575 0 0 Z " fill="#0C9CB5" transform="translate(194,203)"/>
<path d="M0 0 C2.31 0 4.62 0 7 0 C7.13337509 5.85516641 6.69113346 11.34891938 5.75 17.125 C5.61505127 17.95612305 5.48010254 18.78724609 5.34106445 19.64355469 C1.22894442 43.84565266 -9.00096264 67.30828568 -25 86 C-25.45745605 86.54108398 -25.91491211 87.08216797 -26.38623047 87.63964844 C-43.16087814 107.27629401 -68.17209346 125.14052721 -94 130 C-95.34320793 129.70899939 -96.67978503 129.38199648 -98 129 C-97.41734375 128.8047876 -96.8346875 128.6095752 -96.234375 128.40844727 C-60.65224326 116.3484264 -31.83236202 94.98429497 -14.6875 60.875 C-13.42116864 58.26625137 -12.19925841 55.64017399 -11 53 C-10.51660156 51.94554687 -10.03320312 50.89109375 -9.53515625 49.8046875 C-2.92903939 34.10261035 -1.35999706 16.82101623 0 0 Z " fill="#0C9CB5" transform="translate(381,183)"/>
<path d="M0 0 C1.32 0.66 2.64 1.32 4 2 C4 6.93872784 2.28764378 8.65595057 -1 12 C-3.56597918 14.46309794 -6.25484289 16.73928238 -9 19 C-10.33804688 20.12921875 -10.33804688 20.12921875 -11.703125 21.28125 C-32.61014799 38.2212994 -61.27216117 51.20691136 -88.5859375 51.09765625 C-89.28772125 51.0962413 -89.989505 51.09482635 -90.71255493 51.09336853 C-92.93341504 51.0878129 -95.15417084 51.07526892 -97.375 51.0625 C-98.88932145 51.05747926 -100.4036445 51.05291736 -101.91796875 51.04882812 C-105.61201252 51.03785807 -109.30599606 51.02062449 -113 51 C-109.3282591 48.55217273 -106.49873365 48.71558447 -102.25 48.625 C-72.76310558 47.42460038 -44.12571675 38.80476818 -21 20 C-20.21568604 19.37158203 -20.21568604 19.37158203 -19.41552734 18.73046875 C-12.29419756 13.00203888 -5.80588298 7.10387494 0 0 Z " fill="#0B9BB5" transform="translate(393,283)"/>
<path d="M0 0 C1.22589844 0.3815625 2.45179688 0.763125 3.71484375 1.15625 C4.86082031 1.5171875 6.00679688 1.878125 7.1875 2.25 C9.84620233 2.9600163 12.51149363 3.60775847 15.1875 4.25 C15.1875 3.59 15.1875 2.93 15.1875 2.25 C16.52083333 2.91666667 17.85416667 3.58333333 19.1875 4.25 C20.198125 4.70375 21.20875 5.1575 22.25 5.625 C25.1875 7.25 25.1875 7.25 26.625 9.1875 C28.17795286 11.55159322 28.17795286 11.55159322 31.51953125 12.9296875 C35.72504898 15.26115421 37.3627774 18.21457505 39.4375 22.4375 C41.67805453 27.48974827 41.67805453 27.48974827 46.1875 30.25 C47.6352922 33.14558441 48.1875 34.99188938 48.1875 38.25 C48.8475 38.25 49.5075 38.25 50.1875 38.25 C52.71230693 40.77480693 52.74488633 42.38823034 53.3125 45.875 C53.48007812 46.87789062 53.64765625 47.88078125 53.8203125 48.9140625 C53.94148438 49.68492187 54.06265625 50.45578125 54.1875 51.25 C54.8475 50.26 55.5075 49.27 56.1875 48.25 C56.6825 52.21 56.6825 52.21 57.1875 56.25 C58.1775 55.26 58.1775 55.26 59.1875 54.25 C59.8475 54.58 60.5075 54.91 61.1875 55.25 C60.84525391 56.86068359 60.84525391 56.86068359 60.49609375 58.50390625 C60.20512421 59.93998173 59.9147936 61.37618676 59.625 62.8125 C59.47353516 63.51697266 59.32207031 64.22144531 59.16601562 64.94726562 C58.22495598 69.69633406 58.41192355 73.42352811 59.1875 78.25 C57.875 81.25 57.875 81.25 56.1875 84.25 C55.47937186 86.57108669 54.80725848 88.90377147 54.1875 91.25 C53.6925 92.735 53.6925 92.735 53.1875 94.25 C53.1875 95.24 53.1875 96.23 53.1875 97.25 C51.65625 99.51171875 51.65625 99.51171875 49.6875 101.9375 C49.0378125 102.74574219 48.388125 103.55398438 47.71875 104.38671875 C47.2134375 105.00160156 46.708125 105.61648438 46.1875 106.25 C47.1775 106.745 47.1775 106.745 48.1875 107.25 C44.7225 110.715 44.7225 110.715 41.1875 114.25 C40.1975 113.755 40.1975 113.755 39.1875 113.25 C39.8475 112.59 40.5075 111.93 41.1875 111.25 C41.455625 110.38375 41.72375 109.5175 42 108.625 C43.0092638 105.75656604 43.98510808 103.86920687 45.625 101.375 C50.9344986 93.21497413 53.37383374 84.21708817 53.3125 74.5625 C53.31056641 73.82588135 53.30863281 73.0892627 53.30664062 72.33032227 C53.24534254 64.28579955 52.74979684 56.27277097 52.1875 48.25 C51.5275 48.25 50.8675 48.25 50.1875 48.25 C50.03474609 47.43402344 50.03474609 47.43402344 49.87890625 46.6015625 C49.01634707 43.66788663 47.63838377 41.27968263 46.125 38.625 C43.1875 33.46882353 43.1875 33.46882353 43.1875 31.25 C42.5275 31.25 41.8675 31.25 41.1875 31.25 C39.92578125 29.74609375 39.92578125 29.74609375 38.5 27.6875 C30.26895127 16.44895269 19.32765746 8.58836762 5.75 5.1875 C5.05003906 5.0112207 4.35007812 4.83494141 3.62890625 4.65332031 C-2.80913005 3.11087412 -9.19642929 2.47657776 -15.8125 2.25 C-14.48911368 1.56379969 -13.15300052 0.90213539 -11.8125 0.25 C-11.04550781 -0.15734375 -10.27851563 -0.5646875 -9.48828125 -0.984375 C-5.80783164 -2.03746715 -3.61671718 -1.1643676 0 0 Z " fill="#8DD0DC" transform="translate(262.8125,180.75)"/>
<path d="M0 0 C-2.39580094 2.02721618 -4.15457936 3.04849549 -7.1875 4 C-8.5796875 4.495 -8.5796875 4.495 -10 5 C-10.33 5.99 -10.66 6.98 -11 8 C-12.53125 9.18359375 -12.53125 9.18359375 -14.5 10.4375 C-22.47742498 16.19100255 -28.15423111 25.03846412 -32 34 C-32.36996094 34.82113281 -32.73992187 35.64226562 -33.12109375 36.48828125 C-34.09416551 38.65328174 -35.05284841 40.82356656 -36 43 C-36.66 43 -37.32 43 -38 43 C-39.32 45.64 -40.64 48.28 -42 51 C-43 48 -43 48 -41.85546875 45.4765625 C-41.02982422 44.06503906 -41.02982422 44.06503906 -40.1875 42.625 C-36.14506073 35.74708399 -36.14506073 35.74708399 -35 28 C-33.6875 25.96484375 -33.6875 25.96484375 -32 23.9375 C-29.37871907 20.91950494 -29.37871907 20.91950494 -29 17 C-24.780842 12.27673481 -19.57250003 8.90234377 -14 6 C-14.33 5.34 -14.66 4.68 -15 4 C-5.77448747 -0.59225513 -5.77448747 -0.59225513 0 0 Z " fill="#92D2DE" transform="translate(221,189)"/>
<path d="M0 0 C3 3.75 3 3.75 3 6 C3.66 6 4.32 6 5 6 C6.15625 7.3984375 6.15625 7.3984375 7.5 9.375 C15.79414385 20.73656445 24.89107066 27.3089227 37.93359375 32.10546875 C40 33 40 33 42 35 C38.84319701 35.84181413 36.27427197 36 33 36 C30.73828125 34.46875 30.73828125 34.46875 28.3125 32.5 C27.50425781 31.8503125 26.69601563 31.200625 25.86328125 30.53125 C25.24839844 30.0259375 24.63351563 29.520625 24 29 C23.34 29.66 22.68 30.32 22 31 C18.7 27.04 15.4 23.08 12 19 C12.33 20.32 12.66 21.64 13 23 C10.11791034 22.35953563 8.43282445 21.65269374 6.77734375 19.15625 C4 13.66129032 4 13.66129032 4 11 C3.34 11 2.68 11 2 11 C-1.07692308 4.6 -1.07692308 4.6 -0.6875 1.5625 C-0.460625 1.046875 -0.23375 0.53125 0 0 Z " fill="#8CD0DC" transform="translate(190,281)"/>
<path d="M0 0 C0.33 0 0.66 0 1 0 C1.33 2.64 1.66 5.28 2 8 C2.66 7.34 3.32 6.68 4 6 C4.66 6.33 5.32 6.66 6 7 C5.77183594 8.07378906 5.54367187 9.14757812 5.30859375 10.25390625 C5.01762421 11.68998173 4.7272936 13.12618676 4.4375 14.5625 C4.28603516 15.26697266 4.13457031 15.97144531 3.97851562 16.69726562 C3.03745598 21.44633406 3.22442355 25.17352811 4 30 C2.6875 33 2.6875 33 1 36 C0.29187186 38.32108669 -0.38024152 40.65377147 -1 43 C-1.33 43.99 -1.66 44.98 -2 46 C-2 46.99 -2 47.98 -2 49 C-3.53125 51.26171875 -3.53125 51.26171875 -5.5 53.6875 C-6.1496875 54.49574219 -6.799375 55.30398438 -7.46875 56.13671875 C-8.22671875 57.05904297 -8.22671875 57.05904297 -9 58 C-8.34 58.33 -7.68 58.66 -7 59 C-9.31 61.31 -11.62 63.62 -14 66 C-14.66 65.67 -15.32 65.34 -16 65 C-15.34 64.34 -14.68 63.68 -14 63 C-13.731875 62.13375 -13.46375 61.2675 -13.1875 60.375 C-12.1782362 57.50656604 -11.20239192 55.61920687 -9.5625 53.125 C-4.2077547 44.89543569 -1.76118663 36.05326155 -2.2578125 26.33984375 C-2 24 -2 24 -0.4921875 22.19140625 C0.00023437 21.79824219 0.49265625 21.40507812 1 21 C0.67 20.34 0.34 19.68 0 19 C-0.08342159 17.55151418 -0.10732861 16.09929131 -0.09765625 14.6484375 C-0.09443359 13.79765625 -0.09121094 12.946875 -0.08789062 12.0703125 C-0.07532227 10.73613281 -0.07532227 10.73613281 -0.0625 9.375 C-0.05798828 8.4778125 -0.05347656 7.580625 -0.04882812 6.65625 C-0.03702591 4.43743352 -0.02056155 2.21874982 0 0 Z " fill="#DFF2F5" transform="translate(318,229)"/>
<path d="M0 0 C0.99 0.66 1.98 1.32 3 2 C9.22280261 4.66691541 15.32385217 5.9568519 22 7 C21.67 7.66 21.34 8.32 21 9 C13.36945905 8.38955672 6.29810526 6.20378179 -1 4 C19.58355965 12.51733503 38.75760673 14.71065183 61 15 C61 15.33 61 15.66 61 16 C55.00155189 16.36954136 49.0022997 16.69981919 43 17 C41.95972656 17.05671875 40.91945313 17.1134375 39.84765625 17.171875 C22.85819094 17.68283636 4.38089543 10.74593232 -10 2 C-6.31282562 -0.45811625 -4.35654296 -0.31118164 0 0 Z " fill="#2BA8BF" transform="translate(240,316)"/>
<path d="M0 0 C0.66 0.66 1.32 1.32 2 2 C1.34 3.65 0.68 5.3 0 7 C-0.66 7 -1.32 7 -2 7 C-2 7.66 -2 8.32 -2 9 C-1.34 9.33 -0.68 9.66 0 10 C-1.14339844 10.47050781 -2.28679687 10.94101562 -3.46484375 11.42578125 C-4.95596957 12.05411729 -6.44684205 12.6830548 -7.9375 13.3125 C-8.69224609 13.62123047 -9.44699219 13.92996094 -10.22460938 14.24804688 C-11.30258789 14.70727539 -11.30258789 14.70727539 -12.40234375 15.17578125 C-13.06741943 15.45333252 -13.73249512 15.73088379 -14.41772461 16.0168457 C-16.34948573 16.98361803 -16.34948573 16.98361803 -17 20 C-19.72265625 20.94921875 -19.72265625 20.94921875 -23.0625 21.6875 C-24.16722656 21.93886719 -25.27195312 22.19023437 -26.41015625 22.44921875 C-27.26480469 22.63097656 -28.11945313 22.81273437 -29 23 C-29 23.66 -29 24.32 -29 25 C-33.29 25 -37.58 25 -42 25 C-42 25.66 -42 26.32 -42 27 C-43.60495567 26.88557539 -45.20898119 26.75805306 -46.8125 26.625 C-47.70582031 26.55539062 -48.59914062 26.48578125 -49.51953125 26.4140625 C-52 26 -52 26 -55 24 C-48.07 24 -41.14 24 -34 24 C-34 23.01 -34 22.02 -34 21 C-33.236875 20.87625 -32.47375 20.7525 -31.6875 20.625 C-28.79732864 20.11897208 -28.79732864 20.11897208 -26 18 C-13.86596583 11.31208936 -13.86596583 11.31208936 -7 11 C-6.773125 10.113125 -6.54625 9.22625 -6.3125 8.3125 C-4.82811487 4.56619468 -2.97596515 2.66270566 0 0 Z " fill="#A6DBE4" transform="translate(300,294)"/>
<path d="M0 0 C0.66 0.33 1.32 0.66 2 1 C2.04982839 5.26837643 2.08592015 9.536594 2.10986328 13.80517578 C2.11985586 15.25409906 2.13345453 16.70300251 2.15087891 18.15185547 C2.32450751 32.97156783 2.32450751 32.97156783 0 40 C-0.33 40 -0.66 40 -1 40 C-1.495 42.475 -1.495 42.475 -2 45 C-2.33 45 -2.66 45 -3 45 C-4.47207019 24.86844547 -4.47207019 24.86844547 -2.47265625 15.48046875 C-2.01676658 13.08798989 -1.92373254 10.9895998 -2 8.5625 C-2 5.0992472 -1.53209896 3.06419792 0 0 Z " fill="#89CFDB" transform="translate(182,235)"/>
<path d="M0 0 C-1.11375 0.57105469 -2.2275 1.14210937 -3.375 1.73046875 C-17.2910782 9.05229679 -29.7495427 17.86690758 -40.421875 29.51171875 C-42.16746903 31.1579349 -43.83122347 31.99672739 -46 33 C-46.99 33.66 -47.98 34.32 -49 35 C-44.50003241 24.45996895 -12.14119967 -4.04706656 0 0 Z " fill="#1DA3BA" transform="translate(206,195)"/>
<path d="M0 0 C0 0.66 0 1.32 0 2 C-1.4540625 1.9071875 -1.4540625 1.9071875 -2.9375 1.8125 C-7.66030788 1.82198355 -11.63251937 3.32287673 -16 5 C-17.24197144 5.46877563 -17.24197144 5.46877563 -18.5090332 5.94702148 C-28.84647837 9.95947138 -39.04816813 14.75122687 -47.484375 22.06640625 C-48.23460937 22.52853516 -48.23460937 22.52853516 -49 23 C-49.99 22.67 -50.98 22.34 -52 22 C-48.09674496 17.7071833 -44.00365001 14.9198694 -38.9375 12.125 C-38.16253174 11.69517822 -37.38756348 11.26535645 -36.58911133 10.82250977 C-10.09044861 -3.36348287 -10.09044861 -3.36348287 0 0 Z " fill="#1CA2BA" transform="translate(221,187)"/>
<path d="M0 0 C0.99 0 1.98 0 3 0 C3.33 0.66 3.66 1.32 4 2 C4.99 2.33 5.98 2.66 7 3 C8.4477922 5.89558441 9 7.74188938 9 11 C9.66 11 10.32 11 11 11 C13.52480693 13.52480693 13.55738633 15.13823034 14.125 18.625 C14.29257812 19.62789062 14.46015625 20.63078125 14.6328125 21.6640625 C14.81457031 22.82035156 14.81457031 22.82035156 15 24 C15.33 24 15.66 24 16 24 C16.33 27.63 16.66 31.26 17 35 C17.33 35 17.66 35 18 35 C18.28571429 42.42857143 18.28571429 42.42857143 16 46 C14.39698043 40.26562104 13.62202277 34.93883902 13.375 29 C13.33632813 28.22527344 13.29765625 27.45054687 13.2578125 26.65234375 C13.16478643 24.76856585 13.08136825 22.88431744 13 21 C12.34 21 11.68 21 11 21 C10.89816406 20.45601562 10.79632813 19.91203125 10.69140625 19.3515625 C9.82884707 16.41788663 8.45088377 14.02968263 6.9375 11.375 C4 6.21882353 4 6.21882353 4 4 C3.34 4 2.68 4 2 4 C1.34 2.68 0.68 1.36 0 0 Z " fill="#A0D8E2" transform="translate(302,208)"/>
<path d="M0 0 C41.19262187 -0.9030423 41.19262187 -0.9030423 61 6 C57.26583796 7.35295726 54.65448199 6.61768322 50.875 5.625 C40.25510932 2.84669119 29.79809995 2.86706334 18.875 2.9375 C17.52343917 2.94252861 16.17187652 2.94708909 14.8203125 2.95117188 C11.54682735 2.96286289 8.27343814 2.97924971 5 3 C5 2.67 5 2.34 5 2 C3.35 1.67 1.7 1.34 0 1 C0 0.67 0 0.34 0 0 Z " fill="#2DA9BF" transform="translate(195,173)"/>
<path d="M0 0 C0.66 0.33 1.32 0.66 2 1 C1.17757812 1.67804688 0.35515625 2.35609375 -0.4921875 3.0546875 C-11.05941362 11.83048082 -20.50269207 20.65716405 -28.24658203 32.08691406 C-31.5561283 36.85789864 -31.5561283 36.85789864 -34.15283203 37.68920898 C-34.76239746 37.79177002 -35.37196289 37.89433105 -36 38 C-28.99698022 22.911368 -13.60123745 9.06749163 0 0 Z " fill="#1AA1BA" transform="translate(194,203)"/>
<path d="M0 0 C3.00319408 3.00319408 3.46254896 3.72584726 4.25 7.625 C4.50523437 8.81996094 4.50523437 8.81996094 4.765625 10.0390625 C4.88164062 11.00972656 4.88164062 11.00972656 5 12 C4.67 12.33 4.34 12.66 4 13 C7.457024 25.34888862 12.27104981 36.54209963 18 48 C16.515 48.495 16.515 48.495 15 49 C4.39650994 25.75412021 4.39650994 25.75412021 1.71875 13.5703125 C1.4815625 12.72210938 1.244375 11.87390625 1 11 C0.34 10.67 -0.32 10.34 -1 10 C-0.67 6.7 -0.34 3.4 0 0 Z " fill="#28A7BE" transform="translate(184,269)"/>
<path d="M0 0 C-0.99 0.495 -0.99 0.495 -2 1 C-4.51375571 0.00709649 -6.92930006 -1.04684897 -9.375 -2.1875 C-24.16995222 -8.83995401 -38.83542374 -12.55673426 -55 -14 C-55 -14.33 -55 -14.66 -55 -15 C-36.58054011 -19.46532361 -15.9442776 -8.44355305 0 0 Z " fill="#2FAAC0" transform="translate(272,183)"/>
<path d="M0 0 C0.66 0.33 1.32 0.66 2 1 C-0.15548994 7.46646981 -10.25989337 11.15397383 -16.1875 14.16015625 C-38.54808863 25.15616698 -38.54808863 25.15616698 -46 23 C-45.12601562 22.7071814 -45.12601562 22.7071814 -44.234375 22.40844727 C-28.12485117 16.94836986 -13.31658008 10.81972131 0 0 Z " fill="#27A7BD" transform="translate(329,289)"/>
<path d="M0 0 C1.36500767 4.09502301 0.16347465 7.2651998 -0.875 11.3125 C-3.11173623 20.25173202 -4.21609948 28.65279587 -4.5625 37.875 C-4.60568359 38.94492187 -4.64886719 40.01484375 -4.69335938 41.1171875 C-4.79892817 43.74467754 -4.90103791 46.37225422 -5 49 C-5.66 49 -6.32 49 -7 49 C-7 50.98 -7 52.96 -7 55 C-7.33 55 -7.66 55 -8 55 C-8.6784067 36.05486461 -6.47488564 17.86351849 0 0 Z " fill="#37ADC2" transform="translate(180,241)"/>
<path d="M0 0 C2 2 2 2 2.3125 5.75 C2.23200938 9.75989658 1.07510554 12.54149077 -1 16 C-0.34 15.67 0.32 15.34 1 15 C-0.40976705 18.03852705 -2.08870228 20.5939595 -4.125 23.25 C-4.66382813 23.95640625 -5.20265625 24.6628125 -5.7578125 25.390625 C-6.16773438 25.92171875 -6.57765625 26.4528125 -7 27 C-6.34 27.33 -5.68 27.66 -5 28 C-7.31 30.31 -9.62 32.62 -12 35 C-12.66 34.67 -13.32 34.34 -14 34 C-13.34 33.34 -12.68 32.68 -12 32 C-11.731875 31.13375 -11.46375 30.2675 -11.1875 29.375 C-10.1782362 26.50656604 -9.20239192 24.61920687 -7.5625 22.125 C-3.15128222 15.3455178 -1.05339945 7.9757387 0 0 Z " fill="#81CBD8" transform="translate(316,260)"/>
<path d="M0 0 C0 0.33 0 0.66 0 1 C-1.14887695 0.98952637 -2.29775391 0.97905273 -3.48144531 0.96826172 C-7.79781909 0.93169968 -12.11417957 0.90896955 -16.43066406 0.89013672 C-18.2887605 0.88016079 -20.14684158 0.86657522 -22.00488281 0.84912109 C-32.20439681 0.75579938 -42.00298387 0.7157771 -52 3 C-52.33 2.01 -52.66 1.02 -53 0 C-35.48524297 -2.84710129 -17.47720065 -3.39245489 0 0 Z " fill="#36ADC2" transform="translate(251,180)"/>
<path d="M0 0 C3 1 3 1 4.0625 3.1171875 C9.15357225 18.09342503 12.46204838 32.08500037 12 48 C11.67 48 11.34 48 11 48 C10.91024902 47.33693848 10.82049805 46.67387695 10.72802734 45.99072266 C8.93622276 33.07321737 6.80293821 20.8003639 2.26953125 8.546875 C1.23752167 5.66359902 0.48456669 3.01248691 0 0 Z " fill="#29A8BE" transform="translate(306,184)"/>
<path d="M0 0 C15.63811826 4.95207078 31.20529371 11.5553418 44 22 C39.8876389 22 37.24720476 19.97964619 33.8125 17.9375 C22.81369619 11.58090132 11.36819211 6.12177926 -1 3 C-0.67 2.01 -0.34 1.02 0 0 Z " fill="#29A7BE" transform="translate(234,162)"/>
<path d="M0 0 C0.33 0 0.66 0 1 0 C1.10957031 1.30710937 1.21914062 2.61421875 1.33203125 3.9609375 C2.51223845 17.45773116 4.27711684 30.72270307 7 44 C6.34 44 5.68 44 5 44 C4.67 44.66 4.34 45.32 4 46 C0.0831176 30.50491176 -0.13672483 15.89583896 0 0 Z " fill="#23A5BC" transform="translate(178,266)"/>
<path d="M0 0 C4.3468036 1.6331921 8.43506542 3.70069753 12.5625 5.8125 C22.12155748 10.63301955 31.40245766 15.05711724 42 17 C41.01 17.495 41.01 17.495 40 18 C40 18.66 40 19.32 40 20 C34.10974747 18.68218079 28.81035462 16.85241723 23.3125 14.375 C22.53592041 14.02743652 21.75934082 13.67987305 20.95922852 13.32177734 C2.41183572 4.82367144 2.41183572 4.82367144 0 0 Z " fill="#24A5BD" transform="translate(226,318)"/>
<path d="M0 0 C0 0.66 0 1.32 0 2 C-9.05651405 3.81454307 -17.91161033 4.21819084 -27.125 4.25 C-28.7790686 4.26353516 -28.7790686 4.26353516 -30.46655273 4.27734375 C-31.51141846 4.27347656 -32.55628418 4.26960938 -33.6328125 4.265625 C-34.57012207 4.26336914 -35.50743164 4.26111328 -36.47314453 4.25878906 C-39.09837137 3.98992525 -40.74431718 3.3326328 -43 2 C-42.28046143 1.98018066 -41.56092285 1.96036133 -40.81958008 1.93994141 C-23.47420917 1.61102505 -23.47420917 1.61102505 -6.3203125 -0.6953125 C-3.89538451 -1.01373739 -2.30532843 -0.76129451 0 0 Z " fill="#3BAFC4" transform="translate(301,318)"/>
<path d="M0 0 C0.33 0.66 0.66 1.32 1 2 C1.66 2.33 2.32 2.66 3 3 C-2.01804199 17.56800315 -7.42648708 31.73393657 -17 44 C-17.33 43.34 -17.66 42.68 -18 42 C-16.87803555 39.84728772 -15.7051109 37.81474528 -14.4375 35.75 C-7.74256732 24.41379496 -3.28293446 12.7068875 0 0 Z " fill="#27A7BD" transform="translate(335,231)"/>
<path d="M0 0 C0.66 0.33 1.32 0.66 2 1 C-1.73818474 3.44554142 -5.28371326 4.86565836 -9.5625 6.125 C-10.67753906 6.45757812 -11.79257813 6.79015625 -12.94140625 7.1328125 C-14.45541016 7.56207031 -14.45541016 7.56207031 -16 8 C-17.13115234 8.33644531 -17.13115234 8.33644531 -18.28515625 8.6796875 C-20 9 -20 9 -21.875 8 C-24.83279108 6.60809832 -26.88466822 7.29197005 -30 8 C-30 7.01 -30 6.02 -30 5 C-22.55397534 3.76299913 -15.19658148 2.75805393 -7.65625 2.34375 C-4.92976376 2.10392486 -4.92976376 2.10392486 -2.28125 0.90625 C-1.15203125 0.45765625 -1.15203125 0.45765625 0 0 Z " fill="#C7E8EE" transform="translate(241,180)"/>
<path d="M0 0 C0.33 1.32 0.66 2.64 1 4 C1.66 4 2.32 4 3 4 C1.51340849 18.65354485 -3.5684219 34.29439874 -11 47 C-12.26407166 43.20778503 -11.52814161 42.42875951 -9.875 38.875 C-4.42586305 26.29189545 -1.3287626 13.62477469 0 0 Z " fill="#23A5BC" transform="translate(330,221)"/>
<path d="M0 0 C-2.72866982 1.36433491 -5.42255697 1.34945192 -8.42456055 1.59545898 C-22.0976059 2.72043236 -35.07751224 5.30091354 -48 10 C-48.33 9.01 -48.66 8.02 -49 7 C-35.6123484 2.41327415 -13.94352219 -4.64784073 0 0 Z " fill="#39AEC3" transform="translate(238,182)"/>
<path d="M0 0 C11.209053 3.29483242 20.2292768 11.57101385 29 19 C30.22843397 20.02171491 31.45744589 21.04273617 32.6875 22.0625 C33.450625 22.701875 34.21375 23.34125 35 24 C34.67 24.66 34.34 25.32 34 26 C33.32195312 25.43152344 32.64390625 24.86304688 31.9453125 24.27734375 C21.20885644 15.36995153 10.37053853 8.35020978 -2 2 C-1.34 1.34 -0.68 0.68 0 0 Z " fill="#23A5BC" transform="translate(251,162)"/>
<path d="M0 0 C1.34711632 4.04134896 0.20840585 5.77710132 -1.25 9.75 C-4.36341209 18.55909941 -6.43602247 27.49557927 -7.390625 36.8125 C-7.59171875 37.864375 -7.7928125 38.91625 -8 40 C-8.99 40.66 -9.98 41.32 -11 42 C-10.96713058 34.06203627 -9.355505 26.90586731 -7.1875 19.3125 C-6.8150415 17.99536011 -6.8150415 17.99536011 -6.43505859 16.65161133 C-4.73052737 10.87237162 -2.58458072 5.44126611 0 0 Z " fill="#20A4BB" transform="translate(177,240)"/>
<path d="M0 0 C1.2271875 0.38542969 2.454375 0.77085937 3.71875 1.16796875 C4.8840625 1.54566406 6.049375 1.92335937 7.25 2.3125 C8.1884375 2.57675781 9.126875 2.84101563 10.09375 3.11328125 C11.28484375 3.45939453 11.28484375 3.45939453 12.5 3.8125 C13.18578125 4.0084375 13.8715625 4.204375 14.578125 4.40625 C16.80455717 5.61310108 17.3247217 7.00874587 18.25 9.3125 C17.24453125 8.88130859 17.24453125 8.88130859 16.21875 8.44140625 C5.92972839 4.5288704 -4.77722902 2.68827983 -15.75 2.3125 C-14.42661368 1.62629969 -13.09050052 0.96463539 -11.75 0.3125 C-10.59757813 -0.29658203 -10.59757813 -0.29658203 -9.421875 -0.91796875 C-5.76643028 -1.97077958 -3.60166384 -1.14052688 0 0 Z " fill="#A4DAE3" transform="translate(262.75,180.6875)"/>
<path d="M0 0 C0.33 0 0.66 0 1 0 C1.20753906 1.18851562 1.41507813 2.37703125 1.62890625 3.6015625 C4.04164831 16.78297961 7.68656307 29.32155048 12 42 C10.515 42.495 10.515 42.495 9 43 C5.77441489 34.07483733 2.766215 25.24267996 1.125 15.875 C1.00535889 15.20218994 0.88571777 14.52937988 0.76245117 13.83618164 C0.01047155 9.16742439 -0.09440831 4.70992545 0 0 Z " fill="#1FA4BB" transform="translate(182,273)"/>
<path d="M0 0 C2.35916678 2.90302454 4.10793309 5.98142829 5.85571289 9.28125 C10.89733367 18.74780042 17.07260428 26.8418487 24 35 C22.515 35.495 22.515 35.495 21 36 C13.82546542 27.69161526 0 11.60234014 0 0 Z " fill="#23A5BC" transform="translate(193,292)"/>
<path d="M0 0 C0.33 0.66 0.66 1.32 1 2 C-0.13930474 4.49863393 -1.33630602 6.89226985 -2.625 9.3125 C-6.29189903 16.38897181 -9.32309039 23.48406149 -12 31 C-12.99 30.67 -13.98 30.34 -15 30 C-14.36574446 25.25687161 -12.45878167 21.45940483 -10.3125 17.25 C-9.95671875 16.54423828 -9.6009375 15.83847656 -9.234375 15.11132812 C-6.52005027 9.81401696 -3.52387542 4.80528466 0 0 Z " fill="#E9F6F8" transform="translate(184,224)"/>
<path d="M0 0 C0.66 0.33 1.32 0.66 2 1 C1.32195312 1.70382813 0.64390625 2.40765625 -0.0546875 3.1328125 C-5.23749435 8.59881234 -10.06786989 14.16973487 -14.4375 20.3125 C-14.83759277 20.87404785 -15.23768555 21.4355957 -15.64990234 22.01416016 C-18.35115498 25.88789076 -20.70678839 29.87848756 -23 34 C-23.66 33.67 -24.32 33.34 -25 33 C-20.59099501 20.75518912 -9.18005897 9.03738114 0 0 Z " fill="#26A6BD" transform="translate(190,210)"/>
<path d="M0 0 C-2.39580094 2.02721618 -4.15457936 3.04849549 -7.1875 4 C-8.115625 4.33 -9.04375 4.66 -10 5 C-10.33 5.99 -10.66 6.98 -11 8 C-13.06640625 9.82421875 -13.06640625 9.82421875 -15.5625 11.6875 C-16.38878906 12.31011719 -17.21507812 12.93273437 -18.06640625 13.57421875 C-18.70449219 14.04472656 -19.34257812 14.51523438 -20 15 C-20.66 14.67 -21.32 14.34 -22 14 C-21.9375 12.25 -21.9375 12.25 -21 10 C-18.75835678 8.40498463 -16.46433357 7.25456982 -14 6 C-14.33 5.34 -14.66 4.68 -15 4 C-5.77448747 -0.59225513 -5.77448747 -0.59225513 0 0 Z " fill="#84CDDA" transform="translate(221,189)"/>
<path d="M0 0 C0.66 0.33 1.32 0.66 2 1 C-13.17878859 24.48117399 -13.17878859 24.48117399 -24 33 C-22.53678604 29.61868691 -20.64444103 27.48028589 -18.0625 24.875 C-13.01953724 19.43089248 -9.359283 13.37764044 -5.63110352 6.98193359 C-5.18694092 6.22348145 -4.74277832 5.4650293 -4.28515625 4.68359375 C-3.89207275 3.99837646 -3.49898926 3.31315918 -3.09399414 2.60717773 C-2 1 -2 1 0 0 Z " fill="#25A6BD" transform="translate(335,254)"/>
<path d="M0 0 C0.66 0 1.32 0 2 0 C-1.17700101 11.64900372 -16.79490596 20.27421496 -26 27 C-26.66 26.67 -27.32 26.34 -28 26 C-27.32795532 25.46427368 -27.32795532 25.46427368 -26.64233398 24.91772461 C-24.57051356 23.26202879 -22.5040133 21.59981422 -20.4375 19.9375 C-19.73302734 19.37611328 -19.02855469 18.81472656 -18.30273438 18.23632812 C-12.40408325 13.47935141 -6.94385414 8.47645792 -2.1875 2.5625 C-1.1046875 1.2940625 -1.1046875 1.2940625 0 0 Z " fill="#27A6BD" transform="translate(329,272)"/>
<path d="M0 0 C0.33 0 0.66 0 1 0 C2.30010703 5.95366473 2.14704979 11.87748205 2.125 17.9375 C2.12886719 18.99646484 2.13273437 20.05542969 2.13671875 21.14648438 C2.12999171 26.53820621 1.9517636 31.68976338 1 37 C0.67 37 0.34 37 0 37 C-0.16821435 32.53450019 -0.32870773 28.06880839 -0.48217773 23.6027832 C-0.5354146 22.08480439 -0.59072853 20.5668969 -0.64819336 19.04907227 C-0.73061847 16.86229831 -0.80547122 14.67537334 -0.87890625 12.48828125 C-0.9260376 11.17384033 -0.97316895 9.85939941 -1.02172852 8.50512695 C-1.00297596 5.48006575 -0.72984472 2.92183626 0 0 Z " fill="#3CAFC4" transform="translate(320,205)"/>
<path d="M0 0 C0.99 0.66 1.98 1.32 3 2 C9.22280261 4.66691541 15.32385217 5.9568519 22 7 C21.67 7.66 21.34 8.32 21 9 C13.36945905 8.38955672 6.29810526 6.20378179 -1 4 C-1 4.66 -1 5.32 -1 6 C-4.77545388 4.90931332 -7.47043472 4.0916909 -10 1 C-6.47005387 -0.17664871 -3.70544587 -0.19850603 0 0 Z " fill="#48B4C8" transform="translate(240,316)"/>
<path d="M0 0 C0 0.99 0 1.98 0 3 C-2.51974253 3.65035371 -5.04065935 4.29537493 -7.5625 4.9375 C-8.26697266 5.11990234 -8.97144531 5.30230469 -9.69726562 5.49023438 C-15.92169158 7.06785386 -21.98874669 8.15083909 -28.4375 8.0625 C-29.73494141 8.04896484 -29.73494141 8.04896484 -31.05859375 8.03515625 C-31.69925781 8.02355469 -32.33992188 8.01195312 -33 8 C-29.22512217 5.69752216 -25.165858 5.22865418 -20.875 4.5625 C-15.02369723 3.60172668 -9.4226251 2.43638404 -3.78515625 0.55078125 C-2 0 -2 0 0 0 Z " fill="#37ADC2" transform="translate(304,310)"/>
<path d="M0 0 C3 3.75 3 3.75 3 6 C3.66 6 4.32 6 5 6 C6.6875 8.3125 6.6875 8.3125 8 11 C7.67 11.99 7.34 12.98 7 14 C8.66180738 17.40670513 9.80334098 18.86889399 13 21 C12.67 21.66 12.34 22.32 12 23 C8.5659298 21.61482883 7.29977978 20.34555636 5.75 17 C5.41484375 16.29875 5.0796875 15.5975 4.734375 14.875 C4 13 4 13 4 11 C3.34 11 2.68 11 2 11 C-1.07692308 4.6 -1.07692308 4.6 -0.6875 1.5625 C-0.460625 1.046875 -0.23375 0.53125 0 0 Z " fill="#93D3DE" transform="translate(190,281)"/>
<path d="M0 0 C0.99 0 1.98 0 3 0 C1.64449208 8.28796269 -7.00755531 17.34766704 -13 23 C-13.66 23 -14.32 23 -15 23 C-13.36676968 19.32084138 -11.07982634 16.36409422 -8.625 13.1875 C-5.38482897 8.95010438 -2.47322188 4.73138099 0 0 Z " fill="#EBF7F9" transform="translate(324,264)"/>
<path d="M0 0 C0.66 0.66 1.32 1.32 2 2 C1.34 3.65 0.68 5.3 0 7 C-0.66 7 -1.32 7 -2 7 C-2 7.66 -2 8.32 -2 9 C-1.34 9.33 -0.68 9.66 0 10 C-2.09836004 11.03271642 -4.20390891 12.05083717 -6.3125 13.0625 C-7.48425781 13.63097656 -8.65601563 14.19945312 -9.86328125 14.78515625 C-13 16 -13 16 -16 15 C-15.34 14.01 -14.68 13.02 -14 12 C-10.375 11.3125 -10.375 11.3125 -7 11 C-6.773125 10.113125 -6.54625 9.22625 -6.3125 8.3125 C-4.82811487 4.56619468 -2.97596515 2.66270566 0 0 Z " fill="#95D4DF" transform="translate(300,294)"/>
<path d="M0 0 C1.08333333 0.8125 2.16666667 1.625 3.25 2.4375 C3.97703125 2.98148437 4.7040625 3.52546875 5.453125 4.0859375 C7.28096412 5.45962027 9.10324627 6.84070906 10.921875 8.2265625 C16.47399963 12.43997688 22.01220557 16.43035332 28 20 C27.01 20.66 26.02 21.32 25 22 C4.59499264 6.97790869 4.59499264 6.97790869 0 2 C0 1.34 0 0.68 0 0 Z " fill="#2BA8BF" transform="translate(213,311)"/>
<path d="M0 0 C1.09162215 3.32867881 0.85392514 5.53751355 0.125 8.9375 C-1.58107265 18.1940969 -1.67550941 27.61351606 -2 37 C-2.33 37 -2.66 37 -3 37 C-3.33 34.36 -3.66 31.72 -4 29 C-4.33 29 -4.66 29 -5 29 C-4.61411174 18.98619978 -2.46135018 9.66223048 0 0 Z " fill="#EBF7F9" transform="translate(180,244)"/>
<path d="M0 0 C0 4.16548395 -2.23520265 6.4795084 -4.5625 9.75 C-9.66899133 17.12553698 -13.47501301 24.77113964 -17 33 C-17.66 32.67 -18.32 32.34 -19 32 C-17.53065667 27.01969944 -15.41712881 22.74161409 -12.875 18.25 C-12.28537476 17.20199219 -12.28537476 17.20199219 -11.68383789 16.1328125 C-8.30977799 10.27263876 -4.47997826 5.07812249 0 0 Z " fill="#2BA8BF" transform="translate(187,218)"/>
<path d="M0 0 C0.66 0 1.32 0 2 0 C0.19403587 3.89502535 -2.12100081 7.458641 -4.4375 11.0625 C-4.83259766 11.68705078 -5.22769531 12.31160156 -5.63476562 12.95507812 C-10.46711326 20.48903775 -10.46711326 20.48903775 -15 22 C-13.50977142 17.49563677 -10.98491774 14.10211907 -8.0625 10.4375 C-7.17826573 9.31129187 -6.29414832 8.18499199 -5.41015625 7.05859375 C-4.61480469 6.04925781 -3.81945312 5.03992188 -3 4 C-2.44183594 3.20722656 -1.88367188 2.41445312 -1.30859375 1.59765625 C-0.87675781 1.07042969 -0.44492188 0.54320312 0 0 Z " fill="#E9F6F8" transform="translate(185,217)"/>
<path d="M0 0 C-1.12685023 3.38055068 -2.05384625 4.1079382 -4.75 6.3125 C-7.3523196 8.50588366 -9.64944068 10.63428687 -11.75 13.3125 C-13.86284507 15.83617606 -15.02937369 16.81174948 -18 18 C-18.99 18.66 -19.98 19.32 -21 20 C-19.70159182 17.13877912 -18.3291723 15.0807105 -16.1015625 12.87109375 C-15.53953125 12.31099609 -14.9775 11.75089844 -14.3984375 11.17382812 C-13.81320313 10.60083984 -13.22796875 10.02785156 -12.625 9.4375 C-12.0475 8.86064453 -11.47 8.28378906 -10.875 7.68945312 C-3.10572556 0 -3.10572556 0 0 0 Z " fill="#EEF8F9" transform="translate(193,207)"/>
<path d="M0 0 C0.66 0.33 1.32 0.66 2 1 C1 4 1 4 -0.62646484 4.9831543 C-1.31434082 5.26070557 -2.0022168 5.53825684 -2.7109375 5.82421875 C-3.83628906 6.28344727 -3.83628906 6.28344727 -4.984375 6.75195312 C-5.77328125 7.06068359 -6.5621875 7.36941406 -7.375 7.6875 C-8.15617187 8.00783203 -8.93734375 8.32816406 -9.7421875 8.65820312 C-15.57421042 11 -15.57421042 11 -19 11 C-19 10.34 -19 9.68 -19 9 C-15.88112823 7.46635461 -12.75402378 5.95031107 -9.625 4.4375 C-8.73554688 3.99986328 -7.84609375 3.56222656 -6.9296875 3.11132812 C-6.07890625 2.70205078 -5.228125 2.29277344 -4.3515625 1.87109375 C-3.56604004 1.48880615 -2.78051758 1.10651855 -1.97119141 0.71264648 C-1.32069824 0.47747314 -0.67020508 0.2422998 0 0 Z " fill="#159FB8" transform="translate(323,301)"/>
<path d="M0 0 C4.67116078 1.40219293 7.30725366 4.05103176 10.4375 7.625 C10.91614502 8.15899414 11.39479004 8.69298828 11.88793945 9.24316406 C15.50720743 13.32442709 18.83637502 17.55382435 22 22 C21.67 22.66 21.34 23.32 21 24 C19.85724609 22.62328125 19.85724609 22.62328125 18.69140625 21.21875 C13.3209189 14.8153424 8.05049974 8.75749979 1.546875 3.453125 C1.03640625 2.97359375 0.5259375 2.4940625 0 2 C0 1.34 0 0.68 0 0 Z " fill="#26A6BD" transform="translate(274,171)"/>
<path d="M0 0 C0.556875 0.268125 1.11375 0.53625 1.6875 0.8125 C1.08415691 4.51753641 -0.53724237 6.67218148 -2.875 9.5625 C-3.83599609 10.76132813 -3.83599609 10.76132813 -4.81640625 11.984375 C-5.31011719 12.58765625 -5.80382812 13.1909375 -6.3125 13.8125 C-7.79081633 8.0809949 -7.79081633 8.0809949 -7.3125 4.8125 C-3.33459945 -0.27037293 -3.33459945 -0.27037293 0 0 Z " fill="#A9DCE5" transform="translate(199.3125,201.1875)"/>
<path d="M0 0 C0.66 0.33 1.32 0.66 2 1 C0.48650116 8.44136929 -1.29288608 15.89382597 -4 23 C-4.66 23.33 -5.32 23.66 -6 24 C-2.38297872 2.38297872 -2.38297872 2.38297872 0 0 Z " fill="#ECF7F9" transform="translate(327,233)"/>
<path d="M0 0 C2.99113537 2.99113537 3.75186419 6.59870362 5.0625 10.5625 C5.33126953 11.33658203 5.60003906 12.11066406 5.87695312 12.90820312 C7.67600911 18.29639824 8.54177141 23.33719979 9 29 C7.19697615 26.29546423 6.31096986 24.2949243 5.30859375 21.25390625 C5.00373047 20.33416016 4.69886719 19.41441406 4.38476562 18.46679688 C4.07216797 17.50837891 3.75957031 16.54996094 3.4375 15.5625 C3.12103516 14.60794922 2.80457031 13.65339844 2.47851562 12.66992188 C-0.47694361 3.70314639 -0.47694361 3.70314639 -1 1 C-0.67 0.67 -0.34 0.34 0 0 Z " fill="#3BAFC3" transform="translate(305,193)"/>
<path d="M0 0 C0.66 0.33 1.32 0.66 2 1 C-0.89454478 2.93943036 -3.79086236 4.87619712 -6.6875 6.8125 C-7.50412109 7.35970703 -8.32074219 7.90691406 -9.16210938 8.47070312 C-13.05776573 11.07306466 -16.94623068 13.64699744 -21 16 C-20.09630256 12.30007931 -18.79418385 10.60282181 -15.6640625 8.61328125 C-14.32604975 7.83189238 -12.97929597 7.06531414 -11.625 6.3125 C-10.61566406 5.72758789 -10.61566406 5.72758789 -9.5859375 5.13085938 C-7.73525658 4.06526062 -5.87151888 3.02841956 -4 2 C-3.22398437 1.56042969 -2.44796875 1.12085938 -1.6484375 0.66796875 C-0.83246094 0.33732422 -0.83246094 0.33732422 0 0 Z " fill="#E7F5F7" transform="translate(206,194)"/>
<path d="M0 0 C0 0.66 0 1.32 0 2 C-0.93972656 1.9278125 -1.87945312 1.855625 -2.84765625 1.78125 C-8.05370422 1.78125 -12.61668126 3.70217127 -17.4375 5.5 C-18.35982422 5.83386719 -19.28214844 6.16773438 -20.23242188 6.51171875 C-22.49209565 7.33128955 -24.74753441 8.16086491 -27 9 C-27.66 8.34 -28.32 7.68 -29 7 C-25.77278785 5.84860965 -22.54291128 4.70488074 -19.3125 3.5625 C-18.40048828 3.23701172 -17.48847656 2.91152344 -16.54882812 2.57617188 C-15.66259766 2.26357422 -14.77636719 1.95097656 -13.86328125 1.62890625 C-13.05157471 1.34088135 -12.23986816 1.05285645 -11.40356445 0.75610352 C-7.2989902 -0.53509674 -4.15792306 -1.38597435 0 0 Z " fill="#3BAFC4" transform="translate(221,187)"/>
<path d="M0 0 C0.66 0 1.32 0 2 0 C10.66306275 15.2122627 10.66306275 15.2122627 14.125 21.8125 C14.51945312 22.56144531 14.91390625 23.31039062 15.3203125 24.08203125 C16 26 16 26 15 29 C14.68772461 28.39003174 14.37544922 27.78006348 14.05371094 27.15161133 C12.62493739 24.36888713 11.18756379 21.59069261 9.75 18.8125 C9.01330078 17.37293945 9.01330078 17.37293945 8.26171875 15.90429688 C5.81989545 11.19971732 3.3587032 7.11840988 0 3 C0 2.01 0 1.02 0 0 Z " fill="#32ABC1" transform="translate(292,182)"/>
<path d="M0 0 C1 3 1 3 -0.2578125 5.890625 C-0.87398438 6.99921875 -1.49015625 8.1078125 -2.125 9.25 C-2.4454126 9.82903076 -2.7658252 10.40806152 -3.09594727 11.00463867 C-5.47019441 15.23111856 -8.05174902 19.15833963 -11 23 C-11.33 22.34 -11.66 21.68 -12 21 C-11.30322266 19.26000977 -11.30322266 19.26000977 -10.1640625 17.19140625 C-9.75929688 16.44439453 -9.35453125 15.69738281 -8.9375 14.92773438 C-8.504375 14.14720703 -8.07125 13.36667969 -7.625 12.5625 C-6.78190015 11.02320406 -5.94067596 9.48287891 -5.1015625 7.94140625 C-4.72338379 7.25763916 -4.34520508 6.57387207 -3.95556641 5.86938477 C-2.87076583 3.86266301 -2.87076583 3.86266301 -2 1 C-1.34 0.67 -0.68 0.34 0 0 Z " fill="#E4F4F7" transform="translate(326,254)"/>
<path d="M0 0 C1.43737253 3.80266909 0.50073987 6.14627056 -0.875 9.875 C-2.35705006 13.92731869 -3.39983762 17.72224688 -4 22 C-4.99 21.34 -5.98 20.68 -7 20 C-3.88 3.88 -3.88 3.88 0 0 Z " fill="#1AA1BA" transform="translate(168,250)"/>
<path d="M0 0 C9.9 0 19.8 0 30 0 C30 0.33 30 0.66 30 1 C24.87716234 1.98643638 19.82251071 2.30967053 14.625 2.5625 C13.79355469 2.60568359 12.96210938 2.64886719 12.10546875 2.69335938 C10.07046772 2.79861805 8.03525297 2.89973072 6 3 C6 2.34 6 1.68 6 1 C4.02 1 2.04 1 0 1 C0 0.67 0 0.34 0 0 Z " fill="#E1F2F6" transform="translate(211,180)"/>
<path d="M0 0 C-3.43665342 1.48113917 -6.87446495 2.95957104 -10.3125 4.4375 C-11.77719727 5.06881836 -11.77719727 5.06881836 -13.27148438 5.71289062 C-14.20927734 6.11572266 -15.14707031 6.51855469 -16.11328125 6.93359375 C-16.97735596 7.30540771 -17.84143066 7.67722168 -18.73168945 8.06030273 C-20.46055479 8.77652302 -22.22468252 9.40822751 -24 10 C-23.75708008 8.12231445 -23.75708008 8.12231445 -23 6 C-21.20581055 4.88745117 -21.20581055 4.88745117 -18.88671875 4.04296875 C-17.6327832 3.58180664 -17.6327832 3.58180664 -16.35351562 3.11132812 C-15.03383789 2.6540332 -15.03383789 2.6540332 -13.6875 2.1875 C-12.81931641 1.86330078 -11.95113281 1.53910156 -11.05664062 1.20507812 C-3.95946304 -1.33857646 -3.95946304 -1.33857646 0 0 Z " fill="#E9F6F8" transform="translate(218,189)"/>
<path d="M0 0 C1.98 0 3.96 0 6 0 C5.67 1.32 5.34 2.64 5 4 C0.71 4 -3.58 4 -8 4 C-8 4.66 -8 5.32 -8 6 C-9.60495567 5.88557539 -11.20898119 5.75805306 -12.8125 5.625 C-13.70582031 5.55539062 -14.59914062 5.48578125 -15.51953125 5.4140625 C-18 5 -18 5 -21 3 C-14.07 3 -7.14 3 0 3 C0 2.01 0 1.02 0 0 Z " fill="#77C7D5" transform="translate(266,315)"/>
<path d="M0 0 C4.73789165 1.44323469 8.98858151 3.37226733 13.375 5.625 C14.01566406 5.94984375 14.65632812 6.2746875 15.31640625 6.609375 C16.87947501 7.40257407 18.44000622 8.20077031 20 9 C19.67 9.99 19.34 10.98 19 12 C12.27937233 8.7886656 5.84649494 5.65062098 0 1 C0 0.67 0 0.34 0 0 Z " fill="#EAF6F8" transform="translate(224,315)"/>
<path d="M0 0 C0.33 0 0.66 0 1 0 C1.33977725 3.33270874 1.67063063 6.66624786 2 10 C2.14308594 11.40185547 2.14308594 11.40185547 2.2890625 12.83203125 C2.81980465 18.25318323 3.1027694 23.55322171 3 29 C2.34 29 1.68 29 1 29 C-0.09857724 22.8323971 -0.11539104 16.81584877 -0.0625 10.5625 C-0.05798828 9.54478516 -0.05347656 8.52707031 -0.04882812 7.47851562 C-0.03712437 4.98561491 -0.02072848 2.49283926 0 0 Z " fill="#16A0B8" transform="translate(178,266)"/>
<path d="M0 0 C0 0.66 0 1.32 0 2 C-4.62459244 3.17700048 -9.07866462 3.11408412 -13.8125 3.0625 C-14.99489258 3.05573242 -14.99489258 3.05573242 -16.20117188 3.04882812 C-18.13414761 3.03711312 -20.06708393 3.01917998 -22 3 C-22 2.67 -22 2.34 -22 2 C-19.08483516 1.46915208 -16.16839443 0.95000945 -13.25 0.4375 C-12.425 0.28603516 -11.6 0.13457031 -10.75 -0.02148438 C-9.95078125 -0.16005859 -9.1515625 -0.29863281 -8.328125 -0.44140625 C-7.5949707 -0.57232666 -6.86181641 -0.70324707 -6.10644531 -0.83813477 C-3.83766713 -1.01247412 -2.16221421 -0.66874807 0 0 Z " fill="#159FB8" transform="translate(301,318)"/>
<path d="M0 0 C0.33 0 0.66 0 1 0 C1.06058594 1.18335938 1.12117187 2.36671875 1.18359375 3.5859375 C1.61253139 11.7486984 2.0825965 19.87442613 3 28 C2.34 28 1.68 28 1 28 C0.67 28.66 0.34 29.32 0 30 C0 20.1 0 10.2 0 0 Z " fill="#F3FAFB" transform="translate(180,257)"/>
<path d="M0 0 C1.65 1.65 3.3 3.3 5 5 C3.25 10.75 3.25 10.75 1 13 C-0.99544337 8.88439805 -1.26247139 5.54950416 -1 1 C-0.67 0.67 -0.34 0.34 0 0 Z " fill="#B6E1E9" transform="translate(317,252)"/>
<path d="M0 0 C-0.77863403 0.43082886 -0.77863403 0.43082886 -1.57299805 0.87036133 C-3.94500387 2.1834974 -6.31625711 3.49798679 -8.6875 4.8125 C-9.50412109 5.26431641 -10.32074219 5.71613281 -11.16210938 6.18164062 C-15.14802736 8.39245343 -19.11317502 10.61724171 -23 13 C-23.33 12.34 -23.66 11.68 -24 11 C-21.62666362 9.55969281 -19.25142274 8.12269913 -16.875 6.6875 C-16.20984375 6.28337891 -15.5446875 5.87925781 -14.859375 5.46289062 C-3.7344159 -1.2448053 -3.7344159 -1.2448053 0 0 Z " fill="#2AA8BE" transform="translate(206,195)"/>
<path d="M0 0 C0.99 0.33 1.98 0.66 3 1 C-0.36192151 3.76005852 -3.78056291 6.27003626 -7.4375 8.625 C-8.79681641 9.51058594 -8.79681641 9.51058594 -10.18359375 10.4140625 C-13.06392889 12.0359988 -15.83827973 13.05939986 -19 14 C-16.52259088 11.26487382 -13.75906969 9.49016752 -10.625 7.5625 C-7.66365122 5.73919021 -4.97918652 3.98214679 -2.3359375 1.71484375 C-1.17964844 0.86599609 -1.17964844 0.86599609 0 0 Z " fill="#25A6BD" transform="translate(319,289)"/>
<path d="M0 0 C0.66 0.33 1.32 0.66 2 1 C0.6551963 5.03441111 -1.95309903 6.12667247 -5.4375 8.1875 C-6.03626953 8.55552734 -6.63503906 8.92355469 -7.25195312 9.30273438 C-11.72070675 12 -11.72070675 12 -14 12 C-14 11.34 -14 10.68 -14 10 C-12.09006699 8.59821431 -10.12046293 7.27709628 -8.125 6 C-3.8284482 3.2901117 -3.8284482 3.2901117 0 0 Z " fill="#E9F6F8" transform="translate(312,291)"/>
<path d="M0 0 C0.99 0 1.98 0 3 0 C2.938125 0.82757813 2.87625 1.65515625 2.8125 2.5078125 C3.04250886 6.79172749 4.32117216 9.97285961 6 13.875 C6.28617188 14.56335938 6.57234375 15.25171875 6.8671875 15.9609375 C7.56870553 17.64458078 8.28305756 19.3228668 9 21 C8.01 21 7.02 21 6 21 C2.91302228 14.09176345 1.08165726 7.48620682 0 0 Z " fill="#E5F4F7" transform="translate(187,279)"/>
<path d="M0 0 C2 2 2 2 2 5 C1.01 5 0.02 5 -1 5 C-1.18175781 5.73605469 -1.36351562 6.47210938 -1.55078125 7.23046875 C-4.04745167 16.92267135 -4.04745167 16.92267135 -7 21 C-8.44249562 16.67251313 -6.44503104 13.86584943 -4.625 9.9375 C-4.295 9.20466797 -3.965 8.47183594 -3.625 7.71679688 C-2.45423417 5.12540664 -1.27179663 2.54359326 0 0 Z " fill="#D6EEF2" transform="translate(183,230)"/>
<path d="M0 0 C0.66 0.33 1.32 0.66 2 1 C-0.04142311 2.72945489 -2.08313202 4.45857048 -4.125 6.1875 C-4.69476563 6.67025391 -5.26453125 7.15300781 -5.8515625 7.65039062 C-9.55341695 10.78434695 -13.27017932 13.899374 -17 17 C-17 14 -17 14 -15.05859375 11.9140625 C-10.1942085 7.66588104 -5.35808234 3.61088158 0 0 Z " fill="#2AA8BE" transform="translate(194,203)"/>
<path d="M0 0 C0.66 0.33 1.32 0.66 2 1 C-0.52995346 4.79493019 -3.22786146 5.42260149 -7.375 6.75 C-8.38433594 7.09998047 -8.38433594 7.09998047 -9.4140625 7.45703125 C-15.5187808 9.46389731 -15.5187808 9.46389731 -19 8 C-17.96359375 7.59007812 -16.9271875 7.18015625 -15.859375 6.7578125 C-14.48954661 6.2136341 -13.11975698 5.66935813 -11.75 5.125 C-11.06808594 4.85558594 -10.38617188 4.58617187 -9.68359375 4.30859375 C-6.93903324 3.21609879 -4.24941231 2.13296484 -1.640625 0.7421875 C-1.09921875 0.49726563 -0.5578125 0.25234375 0 0 Z " fill="#EDF8F9" transform="translate(300,303)"/>
<path d="M0 0 C0.33 0 0.66 0 1 0 C2.76773893 9.07018429 4.44218238 17.71417006 4 27 C3.67 27 3.34 27 3 27 C2.51826171 24.33377553 2.03955375 21.66706329 1.5625 19 C1.42779297 18.25621094 1.29308594 17.51242188 1.15429688 16.74609375 C-1.3496845 2.69936899 -1.3496845 2.69936899 0 0 Z " fill="#E9F6F8" transform="translate(313,207)"/>
<path d="M0 0 C4.026627 2.61186616 7.96091884 5.34726498 11.875 8.125 C13.32519531 9.14980469 13.32519531 9.14980469 14.8046875 10.1953125 C15.89136719 11.08863281 15.89136719 11.08863281 17 12 C17 12.66 17 13.32 17 14 C13.96163688 13.41204951 12.12299224 12.56001359 9.765625 10.56640625 C9.19199219 10.08236328 8.61835938 9.59832031 8.02734375 9.09960938 C7.44082031 8.59236328 6.85429687 8.08511719 6.25 7.5625 C5.64800781 7.05912109 5.04601562 6.55574219 4.42578125 6.03710938 C2.90712923 4.74057313 1.44811493 3.37487212 0 2 C0 1.34 0 0.68 0 0 Z " fill="#E6F5F7" transform="translate(213,309)"/>
<path d="M0 0 C2.64480934 2.28051054 3.56210968 4.04069498 4.3125 7.4375 C4.49425781 8.19933594 4.67601562 8.96117187 4.86328125 9.74609375 C5.02540866 12.41887984 4.37388994 13.74105736 3 16 C2.67 16 2.34 16 2 16 C1.31974363 14.00458132 0.65509503 12.00382009 0 10 C-0.226875 9.34 -0.45375 8.68 -0.6875 8 C-1.12530873 5.19802412 -0.56392282 2.75695599 0 0 Z " fill="#82CCD9" transform="translate(184,269)"/>
<path d="M0 0 C10.2655685 0.84987277 10.2655685 0.84987277 14 3 C15.3125 5.125 15.3125 5.125 16 7 C15.0409375 6.566875 15.0409375 6.566875 14.0625 6.125 C10.11589708 4.6752275 6.1125393 3.84221938 2 3 C2 2.34 2 1.68 2 1 C1.34 0.67 0.68 0.34 0 0 Z " fill="#AEDEE6" transform="translate(265,183)"/>
<path d="M0 0 C3.73317406 1.53549576 7.37525835 3.22489287 11 5 C6.99480212 6.33506596 4.37468036 5.03620044 0.5625 3.6875 C-0.10587891 3.46126953 -0.77425781 3.23503906 -1.46289062 3.00195312 C-4.76070924 1.86781729 -7.9346926 0.66984776 -11 -1 C-7.45176981 -2.7741151 -3.62647477 -1.10602163 0 0 Z " fill="#EBF7F9" transform="translate(257,177)"/>
<path d="M0 0 C3.55685722 3.50558721 6.96283047 7.10553239 10.3125 10.8125 C11.19550781 11.78832031 12.07851562 12.76414062 12.98828125 13.76953125 C13.65214844 14.50558594 14.31601563 15.24164063 15 16 C14.34 16.66 13.68 17.32 13 18 C11.20007488 15.94423268 9.41014591 13.88103782 7.625 11.8125 C6.86316406 10.9452832 6.86316406 10.9452832 6.0859375 10.06054688 C3.33206348 6.85373305 1.28384757 4.10676541 0 0 Z " fill="#1CA2BA" transform="translate(203,304)"/>
<path d="M0 0 C4.76551013 1.37605916 8.7248553 3.46778066 12.875 6.125 C13.46796875 6.49753906 14.0609375 6.87007812 14.671875 7.25390625 C16.1181343 8.16365 17.55958046 9.08103798 19 10 C18.01 10.495 18.01 10.495 17 11 C14.26349329 9.80572714 11.64761917 8.55528228 9 7.1875 C8.26265625 6.81818359 7.5253125 6.44886719 6.765625 6.06835938 C1.28101809 3.28101809 1.28101809 3.28101809 -1 1 C-0.67 0.67 -0.34 0.34 0 0 Z " fill="#E9F6F8" transform="translate(257,174)"/>
<path d="M0 0 C0.66 0 1.32 0 2 0 C1.67 1.32 1.34 2.64 1 4 C1.66 4.33 2.32 4.66 3 5 C0.69 7.31 -1.62 9.62 -4 12 C-4.66 11.67 -5.32 11.34 -6 11 C-5.34 10.34 -4.68 9.68 -4 9 C-3.32060826 7.00428677 -2.65438441 5.00405227 -2 3 C-1.34 2.01 -0.68 1.02 0 0 Z " fill="#A2D9E3" transform="translate(308,283)"/>
<path d="M0 0 C1.96529009 3.45207476 2.7746477 6.88476226 3.625 10.75 C3.88539063 11.92046875 4.14578125 13.0909375 4.4140625 14.296875 C4.60742188 15.18890625 4.80078125 16.0809375 5 17 C4.01 17 3.02 17 2 17 C0.30167391 11.16200408 -0.25287193 6.06892629 0 0 Z " fill="#EAF6F8" transform="translate(184,276)"/>
<path d="M0 0 C3.50778211 4.20933853 7 9.4255442 7 15 C6.34 15 5.68 15 5 15 C3.96427104 13.25877451 2.9468748 11.50663405 1.9375 9.75 C1.08478516 8.28820312 1.08478516 8.28820312 0.21484375 6.796875 C-1 4 -1 4 -0.68359375 1.640625 C-0.45800781 1.09921875 -0.23242188 0.5578125 0 0 Z " fill="#1FA3BB" transform="translate(298,179)"/>
<path d="M0 0 C0.33 0 0.66 0 1 0 C1.33 3.63 1.66 7.26 2 11 C2.33 11 2.66 11 3 11 C3.28571429 18.42857143 3.28571429 18.42857143 1 22 C-0.20029908 19.59940183 -0.11459743 18.10639351 -0.09765625 15.4296875 C-0.09443359 14.53378906 -0.09121094 13.63789063 -0.08789062 12.71484375 C-0.07951172 11.77769531 -0.07113281 10.84054688 -0.0625 9.875 C-0.05798828 8.93011719 -0.05347656 7.98523438 -0.04882812 7.01171875 C-0.03702357 4.67441613 -0.02055759 2.33723939 0 0 Z " fill="#6DC3D3" transform="translate(317,232)"/>
<path d="M0 0 C4.11055959 6.85093265 3.11352608 15.31806861 3 23 C2.67 23 2.34 23 2 23 C1.67 17.39 1.34 11.78 1 6 C0.34 6 -0.32 6 -1 6 C-0.67 4.02 -0.34 2.04 0 0 Z " fill="#8ACFDB" transform="translate(314,223)"/>
<path d="M0 0 C1.33333333 0.66666667 2.66666667 1.33333333 4 2 C5.546875 2.7115625 5.546875 2.7115625 7.125 3.4375 C10 5 10 5 12 8 C11.67 8.99 11.34 9.98 11 11 C9.16086305 9.5489926 7.3288247 8.08898341 5.5 6.625 C4.4790625 5.81289062 3.458125 5.00078125 2.40625 4.1640625 C1.6121875 3.44992188 0.818125 2.73578125 0 2 C0 1.34 0 0.68 0 0 Z " fill="#C3E6ED" transform="translate(278,183)"/>
<path d="M0 0 C1.33998047 0.31324219 1.33998047 0.31324219 2.70703125 0.6328125 C3.60808594 0.83648437 4.50914062 1.04015625 5.4375 1.25 C6.46810547 1.50136719 6.46810547 1.50136719 7.51953125 1.7578125 C7.84953125 2.7478125 8.17953125 3.7378125 8.51953125 4.7578125 C3.65056822 4.16161295 -0.80837826 3.18804428 -5.48046875 1.7578125 C-2.48046875 -0.2421875 -2.48046875 -0.2421875 0 0 Z " fill="#3DAFC4" transform="translate(260.48046875,327.2421875)"/>
<path d="M0 0 C0.66 0.33 1.32 0.66 2 1 C1.58846263 5.97093824 1.20399168 10.44508386 -1 15 C-2.58706088 11.82587823 -2.28477127 8.46361333 -2 5 C-1 2 -1 2 0 0 Z " fill="#95D4DF" transform="translate(182,235)"/>
<path d="M0 0 C0 0.66 0 1.32 0 2 C-1.32 2.33 -2.64 2.66 -4 3 C-3.01 3.33 -2.02 3.66 -1 4 C-1 4.66 -1 5.32 -1 6 C-4.77545388 4.90931332 -7.47043472 4.0916909 -10 1 C-6.52674819 -0.1577506 -3.63932552 -0.06866652 0 0 Z " fill="#70C4D3" transform="translate(240,316)"/>
<path d="M0 0 C0.66 0.33 1.32 0.66 2 1 C1 4 1 4 -0.84765625 4.94921875 C-1.57855469 5.19285156 -2.30945313 5.43648438 -3.0625 5.6875 C-4.16271484 6.06455078 -4.16271484 6.06455078 -5.28515625 6.44921875 C-5.85105469 6.63097656 -6.41695313 6.81273437 -7 7 C-7.33 6.01 -7.66 5.02 -8 4 C-6.71349294 3.30289269 -5.42059335 2.61757124 -4.125 1.9375 C-3.40570313 1.55464844 -2.68640625 1.17179687 -1.9453125 0.77734375 C-1.30335938 0.52082031 -0.66140625 0.26429688 0 0 Z " fill="#20A4BB" transform="translate(323,301)"/>
<path d="M0 0 C0.99 0.33 1.98 0.66 3 1 C4.203125 3.58203125 4.203125 3.58203125 5.25 6.8125 C5.60578125 7.87082031 5.9615625 8.92914063 6.328125 10.01953125 C6.9784667 12.90447728 7.02681757 14.28156631 6 17 C4.99580363 14.5433053 3.99649499 12.08481647 3 9.625 C2.71382813 8.92632812 2.42765625 8.22765625 2.1328125 7.5078125 C0 2.2265625 0 2.2265625 0 0 Z " fill="#EDF7F9" transform="translate(305,202)"/>
<path d="M0 0 C3.3566285 2.23775234 3.57996014 2.93320048 4.6875 6.625 C4.93886719 7.44226563 5.19023437 8.25953125 5.44921875 9.1015625 C5.72185547 10.04128906 5.72185547 10.04128906 6 11 C5.01 11.33 4.02 11.66 3 12 C2.49440092 10.56445975 1.9957251 9.1264798 1.5 7.6875 C1.2215625 6.88699219 0.943125 6.08648437 0.65625 5.26171875 C0 3 0 3 0 0 Z " fill="#1AA1B9" transform="translate(188,304)"/>
<path d="M0 0 C1.94391596 2.42989495 3.52004928 4.89847541 5 7.625 C6.76231859 11.15428119 6.76231859 11.15428119 10 13 C9.67 13.66 9.34 14.32 9 15 C5.14134031 13.54063512 3.99679238 11.73399879 2.25 8.0625 C1.82203125 7.18722656 1.3940625 6.31195313 0.953125 5.41015625 C0 3 0 3 0 0 Z " fill="#C6E7ED" transform="translate(193,289)"/>
<path d="M0 0 C2.93879484 1.35236577 5.29232911 2.89942659 7.75 5 C8.67039062 5.7734375 8.67039062 5.7734375 9.609375 6.5625 C11 8 11 8 11 10 C6.07019047 7.99155908 2.90596617 4.35894926 0 0 Z " fill="#7CC9D7" transform="translate(278,185)"/>
<path d="M0 0 C0.33 0.99 0.66 1.98 1 3 C-0.1196986 4.00593243 -1.2459412 5.0045849 -2.375 6 C-3.00148438 6.556875 -3.62796875 7.11375 -4.2734375 7.6875 C-6 9 -6 9 -8 9 C-6.4169423 4.7257442 -3.49431596 2.73468206 0 0 Z " fill="#18A0B9" transform="translate(329,281)"/>
<path d="M0 0 C3 1 3 1 4.640625 3.65234375 C5.17171875 4.73644531 5.7028125 5.82054687 6.25 6.9375 C6.79140625 8.01902344 7.3328125 9.10054687 7.890625 10.21484375 C8.25671875 11.13394531 8.6228125 12.05304688 9 13 C8.67 13.66 8.34 14.32 8 15 C6.66121428 12.8782637 5.32884524 10.75294812 4 8.625 C3.6184375 8.02171875 3.236875 7.4184375 2.84375 6.796875 C0 2.2265625 0 2.2265625 0 0 Z " fill="#EAF6F8" transform="translate(298,196)"/>
<path d="M0 0 C0.99 0.33 1.98 0.66 3 1 C1.23494565 1.86604534 -0.53728074 2.71748642 -2.3125 3.5625 C-3.79169922 4.27599609 -3.79169922 4.27599609 -5.30078125 5.00390625 C-8 6 -8 6 -11 5 C-10.34 4.01 -9.68 3.02 -9 2 C-6.67968195 1.58565749 -4.34360915 1.25110098 -2 1 C-1.34 0.67 -0.68 0.34 0 0 Z " fill="#6CC3D2" transform="translate(295,304)"/>
<path d="M0 0 C1.32940404 3.98821211 0.43803613 6.11730245 -1 10 C-1.99 10.33 -2.98 10.66 -4 11 C-3.71758359 9.53984709 -3.42373386 8.08190207 -3.125 6.625 C-2.96257812 5.81289062 -2.80015625 5.00078125 -2.6328125 4.1640625 C-2 2 -2 2 0 0 Z " fill="#EDF8F9" transform="translate(176,250)"/>
<path d="M0 0 C3.84280285 1.24631444 6.07319896 2.36048692 8 6 C7.5703125 8.1328125 7.5703125 8.1328125 7 10 C5.83043409 8.52312468 4.66441854 7.04343707 3.5 5.5625 C2.8503125 4.73878906 2.200625 3.91507813 1.53125 3.06640625 C0 1 0 1 0 0 Z " fill="#ADDDE6" transform="translate(292,193)"/>
<path d="M0 0 C2.21399303 3.79541663 3.00980198 7.75629421 4 12 C3.01 11.67 2.02 11.34 1 11 C0.234375 9.00390625 0.234375 9.00390625 -0.25 6.5625 C-0.42015625 5.75941406 -0.5903125 4.95632813 -0.765625 4.12890625 C-1 2 -1 2 0 0 Z " fill="#2EA9BF" transform="translate(186,293)"/>
<path d="M0 0 C1 3 1 3 0.22265625 4.82421875 C-0.8515625 6.54947917 -1.92578125 8.27473958 -3 10 C-3.66 10 -4.32 10 -5 10 C-4.55090939 8.51800098 -4.09043436 7.03944764 -3.625 5.5625 C-3.36976563 4.73878906 -3.11453125 3.91507812 -2.8515625 3.06640625 C-2 1 -2 1 0 0 Z " fill="#F0F9FA" transform="translate(326,254)"/>
<path d="M0 0 C-2.54712074 2.00130916 -4.9527375 3.85727656 -8 5 C-10.25 4.625 -10.25 4.625 -12 4 C-10.68 3.67 -9.36 3.34 -8 3 C-8 2.34 -8 1.68 -8 1 C-5.29120665 -0.35439668 -2.99066732 -0.06501451 0 0 Z " fill="#A0D8E2" transform="translate(221,189)"/>
<path d="M0 0 C3.37503669 1.1858237 5.64722731 2.27573689 8 5 C5 6 5 6 1.8125 4.5625 C0.884375 4.046875 -0.04375 3.53125 -1 3 C-0.67 2.01 -0.34 1.02 0 0 Z " fill="#9CD7E1" transform="translate(212,306)"/>
<path d="M0 0 C0.33 1.32 0.66 2.64 1 4 C1.66 4 2.32 4 3 4 C2.67 6.64 2.34 9.28 2 12 C1.01 11.67 0.02 11.34 -1 11 C-0.67 7.37 -0.34 3.74 0 0 Z " fill="#39AEC3" transform="translate(330,221)"/>
<path d="M0 0 C2.875 -0.125 2.875 -0.125 6 0 C6.66 0.66 7.32 1.32 8 2 C5.42786866 3.61949011 4.32330841 4.04408751 1.25 3.625 C0.5075 3.41875 -0.235 3.2125 -1 3 C-0.67 2.01 -0.34 1.02 0 0 Z " fill="#9DD7E1" transform="translate(220,185)"/>
<path d="M0 0 C5.75 0.875 5.75 0.875 8 2 C7.67 2.99 7.34 3.98 7 5 C4.69 4.01 2.38 3.02 0 2 C0 1.34 0 0.68 0 0 Z " fill="#DFF2F5" transform="translate(236,322)"/>
<path d="M0 0 C3.26008643 3.16952847 6.22237877 6.39937989 9 10 C8.01 10 7.02 10 6 10 C4.39453125 8.3203125 4.39453125 8.3203125 2.8125 6.125 C2.01779297 5.04605469 2.01779297 5.04605469 1.20703125 3.9453125 C0 2 0 2 0 0 Z " fill="#E7F5F7" transform="translate(201,299)"/>
<path d="M0 0 C0.99 0.33 1.98 0.66 3 1 C2.01 1.495 2.01 1.495 1 2 C1.33 2.66 1.66 3.32 2 4 C0.02 4.66 -1.96 5.32 -4 6 C-3.6875 4.125 -3.6875 4.125 -3 2 C-2.01 1.34 -1.02 0.68 0 0 Z " fill="#CAE9EE" transform="translate(293,301)"/>
<path d="M0 0 C0 0.66 0 1.32 0 2 C-4.455 2.495 -4.455 2.495 -9 3 C-8.67 2.01 -8.34 1.02 -8 0 C-5.04215769 -1.22393475 -3.00272755 -0.96516243 0 0 Z " fill="#36ADC2" transform="translate(301,318)"/>
<path d="M0 0 C0.99 0 1.98 0 3 0 C3.33 1.98 3.66 3.96 4 6 C3.34 6 2.68 6 2 6 C1.67 6.66 1.34 7.32 1 8 C0.67 5.36 0.34 2.72 0 0 Z " fill="#3EB0C4" transform="translate(179,295)"/>
<path d="M0 0 C2.93200474 2.85276137 5.64315404 5.65079784 8 9 C7.01 9 6.02 9 5 9 C3.61328125 7.5390625 3.61328125 7.5390625 2.3125 5.625 C1.65701172 4.68527344 1.65701172 4.68527344 0.98828125 3.7265625 C0 2 0 2 0 0 Z " fill="#3EB0C4" transform="translate(203,304)"/>
<path d="M0 0 C0.66 0.66 1.32 1.32 2 2 C-0.64 3.98 -3.28 5.96 -6 8 C-6.66 7.67 -7.32 7.34 -8 7 C-5.36 4.69 -2.72 2.38 0 0 Z " fill="#EBF7F9" transform="translate(308,290)"/>
<path d="M0 0 C0.66 0 1.32 0 2 0 C1.67 1.32 1.34 2.64 1 4 C1.66 4.33 2.32 4.66 3 5 C2.01 5.66 1.02 6.32 0 7 C0 6.34 0 5.68 0 5 C-0.66 5 -1.32 5 -2 5 C-1.34 3.35 -0.68 1.7 0 0 Z " fill="#94D3DE" transform="translate(308,283)"/>
<path d="M0 0 C0.66 0.33 1.32 0.66 2 1 C2 1.66 2 2.32 2 3 C0.02 3.99 -1.96 4.98 -4 6 C-3.6875 4.125 -3.6875 4.125 -3 2 C-2.01 1.34 -1.02 0.68 0 0 Z " fill="#25A6BD" transform="translate(322,294)"/>
<path d="M0 0 C0.66 0 1.32 0 2 0 C1.25 6.75 1.25 6.75 -1 9 C-0.67 6.03 -0.34 3.06 0 0 Z " fill="#16A0B8" transform="translate(333,239)"/>
</svg>
